<svg fill="none" height="48" viewBox="0 0 48 48" width="48" xmlns="http://www.w3.org/2000/svg">
<rect fill="#F5F5F5" height="48" width="48"/>
<g clip-path="url(#clip0_0_1)">
<rect fill="white" height="844" transform="translate(-48 -283)" width="390"/>
<g filter="url(#filter0_d_0_1)">
<rect fill="white" height="120" rx="16" width="152" x="-16" y="-16"/>
<rect fill="white" height="48" rx="8" width="48"/>
<rect fill="#6B7AED" height="48" rx="8" width="48"/>
<path d="M34 23V15.6C34 15.4409 33.9368 15.2883 33.8243 15.1757C33.7117 15.0632 33.5591 15 33.4 15H14.6C14.4409 15 14.2883 15.0632 14.1757 15.1757C14.0632 15.2883 14 15.4409 14 15.6V23M34 23H14M34 23L33.21 25.584C33.0849 25.9936 32.8317 26.3523 32.4875 26.6072C32.1433 26.8621 31.7263 26.9998 31.298 27H30M14 23L14.79 25.584C14.9151 25.9936 15.1683 26.3523 15.5125 26.6072C15.8567 26.8621 16.2737 26.9998 16.702 27H18M30 19H31M21.5 26.5C21.5 26.5 21.5 33.5 18 33.5M26.5 26.5C26.5 26.5 26.5 33.5 30 33.5M24 26.5V33.5" stroke="white" stroke-linecap="round" stroke-linejoin="round" stroke-width="1.5"/>
</g>
</g>
<defs>
<filter color-interpolation-filters="sRGB" filterUnits="userSpaceOnUse" height="126" id="filter0_d_0_1" width="158" x="-19" y="-18">
<feFlood flood-opacity="0" result="BackgroundImageFix"/>
<feColorMatrix in="SourceAlpha" result="hardAlpha" type="matrix" values="0 0 0 0 0 0 0 0 0 0 0 0 0 0 0 0 0 0 127 0"/>
<feOffset dy="1"/>
<feGaussianBlur stdDeviation="1.5"/>
<feColorMatrix type="matrix" values="0 0 0 0 0 0 0 0 0 0 0 0 0 0 0 0 0 0 0.2 0"/>
<feBlend in2="BackgroundImageFix" mode="normal" result="effect1_dropShadow_0_1"/>
<feBlend in="SourceGraphic" in2="effect1_dropShadow_0_1" mode="normal" result="shape"/>
</filter>
<clipPath id="clip0_0_1">
<rect fill="white" height="844" transform="translate(-48 -283)" width="390"/>
</clipPath>
</defs>
</svg>
