<svg width="27" height="25" viewBox="0 0 27 25" fill="none" xmlns="http://www.w3.org/2000/svg">
<path d="M26.5916 10.9046L16.2337 1.10524C15.875 0.75474 15.449 0.476654 14.9799 0.286914C14.5108 0.0971743 14.0079 -0.000488281 13.5 -0.000488281C12.9921 -0.000488281 12.4892 0.0971743 12.0201 0.286914C11.551 0.476654 11.1249 0.75474 10.7662 1.10524L0.408322 10.9046C0.276813 11.024 0.171133 11.1679 0.0974367 11.3277C0.0237405 11.4875 -0.0164924 11.6601 -0.0208449 11.8353C-0.0251974 12.0104 0.00642734 12.1847 0.0720994 12.3478C0.137772 12.5109 0.236181 12.6596 0.361603 12.7851C0.487025 12.9106 0.636923 13.0105 0.80247 13.0788C0.968018 13.1471 1.14588 13.1825 1.32565 13.1829C1.50543 13.1833 1.68346 13.1487 1.84933 13.0811C2.0152 13.0136 2.16558 12.9144 2.2916 12.7894L2.69996 12.4013V22.3684C2.69996 23.0663 2.98442 23.7357 3.49077 24.2292C3.99712 24.7227 4.68388 25 5.39996 25H8.09996C8.81604 25 9.5028 24.7227 10.0091 24.2292C10.5155 23.7357 10.8 23.0663 10.8 22.3684V19.7368C10.8 19.3878 10.9422 19.0532 11.1954 18.8064C11.4486 18.5597 11.7919 18.421 12.15 18.421H14.85C15.208 18.421 15.5514 18.5597 15.8045 18.8064C16.0577 19.0532 16.2 19.3878 16.2 19.7368V22.3684C16.2 23.0663 16.4844 23.7357 16.9908 24.2292C17.4971 24.7227 18.1839 25 18.9 25H21.6C22.316 25 23.0028 24.7227 23.5091 24.2292C24.0155 23.7357 24.3 23.0663 24.3 22.3684V12.4013L24.7083 12.7894C24.8343 12.9144 24.9847 13.0136 25.1506 13.0811C25.3165 13.1487 25.4945 13.1833 25.6743 13.1829C25.854 13.1825 26.0319 13.1471 26.1974 13.0788C26.363 13.0105 26.5129 12.9106 26.6383 12.7851C26.7637 12.6596 26.8621 12.5109 26.9278 12.3478C26.9935 12.1847 27.0251 12.0104 27.0208 11.8353C27.0164 11.6601 26.9762 11.4875 26.9025 11.3277C26.8288 11.1679 26.7231 11.024 26.5916 10.9046Z" fill="#373737"/>
</svg>
