<svg fill="none" height="24" viewBox="0 0 25 24" width="25" xmlns="http://www.w3.org/2000/svg">
<path clip-rule="evenodd" d="M10.9789 2.99646C10.4827 2.99646 10.0801 2.59379 10.0801 2.09764V1.19881C10.0801 0.702658 10.4827 0.299988 10.9789 0.299988C11.475 0.299988 11.8777 0.702658 11.8777 1.19881V2.09764C11.8777 2.59379 11.475 2.99646 10.9789 2.99646Z" fill="#A4A4A4" fill-rule="evenodd"/>
<path clip-rule="evenodd" d="M18.8173 10.8416C18.3212 10.8416 17.9185 10.439 17.9185 9.94281C17.9185 6.29 14.9524 3.17737 11.3068 3.0048C7.65663 2.83627 4.40244 5.64734 4.05864 9.27903C4.03796 9.4961 4.02763 9.71901 4.02763 9.94281C4.02763 10.439 3.62495 10.8416 3.1288 10.8416C2.63265 10.8416 2.22998 10.439 2.22998 9.94281C2.22998 9.66238 2.24301 9.38195 2.26908 9.1096C2.70186 4.53639 6.79915 0.993232 11.3917 1.2094C15.982 1.42647 19.7162 5.34443 19.7162 9.94281C19.7162 10.4394 19.3135 10.8416 18.8173 10.8416Z" fill="#A4A4A4" fill-rule="evenodd"/>
<path clip-rule="evenodd" d="M20.504 16.9738C20.2825 16.9738 20.06 16.892 19.8861 16.728C18.6367 15.5451 17.9199 13.8796 17.9199 12.1588C17.9199 11.6627 18.3226 11.26 18.8187 11.26C19.3149 11.26 19.7176 11.6627 19.7176 12.1588C19.7176 13.388 20.2295 14.578 21.122 15.4225C21.4824 15.7636 21.4981 16.3325 21.157 16.6934C20.9804 16.8794 20.7422 16.9738 20.504 16.9738Z" fill="#A4A4A4" fill-rule="evenodd"/>
<path clip-rule="evenodd" d="M1.44869 16.9738C1.21005 16.9738 0.972315 16.8799 0.795695 16.6929C0.454595 16.3325 0.470325 15.7636 0.830745 15.4225C1.72327 14.578 2.23515 13.3884 2.23515 12.1588C2.23515 11.6627 2.63782 11.26 3.13397 11.26C3.63012 11.26 4.0328 11.6627 4.0328 12.1588C4.0328 13.8805 3.31599 15.546 2.06662 16.728C1.89225 16.892 1.67024 16.9738 1.44868 16.9738H1.44869Z" fill="#A4A4A4" fill-rule="evenodd"/>
<path clip-rule="evenodd" d="M10.9741 23.6729C8.53829 23.6729 6.47998 21.6146 6.47998 19.1788C6.47998 18.6826 6.88265 18.28 7.3788 18.28C7.87495 18.28 8.27763 18.6826 8.27763 19.1788C8.27763 20.6403 9.51261 21.8753 10.9741 21.8753C12.4356 21.8753 13.6706 20.6403 13.6706 19.1788C13.6706 18.6826 14.0732 18.28 14.5694 18.28C15.0655 18.28 15.4682 18.6826 15.4682 19.1788C15.4682 21.6146 13.4099 23.6729 10.9741 23.6729Z" fill="#A4A4A4" fill-rule="evenodd"/>
<path clip-rule="evenodd" d="M2.68032 20.0704C1.5851 20.0704 0.61078 19.4007 0.19777 18.3644C-0.21569 17.3267 0.03104 16.1695 0.8265 15.4163C1.18692 15.0747 1.75543 15.0904 2.09743 15.4509C2.43854 15.8113 2.42326 16.3802 2.06283 16.7218C1.66914 17.0948 1.81385 17.5644 1.86778 17.6993C1.92126 17.8332 2.13833 18.2727 2.68032 18.2727C3.17647 18.2727 3.57914 18.6754 3.57914 19.1715C3.57914 19.6677 3.17692 20.0704 2.68032 20.0704Z" fill="#A4A4A4" fill-rule="evenodd"/>
<path clip-rule="evenodd" d="M19.2689 20.0709C18.7728 20.0709 18.3701 19.6682 18.3701 19.172C18.3701 18.6759 18.7728 18.2732 19.2689 18.2732C19.8114 18.2732 20.0289 17.8319 20.0828 17.6966C20.1363 17.5623 20.2806 17.0944 19.8869 16.7219C19.5264 16.3803 19.5107 15.8118 19.8518 15.4509C20.1934 15.0905 20.7619 15.0748 21.1228 15.4159C21.9182 16.1691 22.1654 17.3254 21.7528 18.3613C21.3394 19.3999 20.3641 20.0709 19.2689 20.0709Z" fill="#A4A4A4" fill-rule="evenodd"/>
<path clip-rule="evenodd" d="M3.12881 13.0514C2.63266 13.0514 2.22998 12.6488 2.22998 12.1526V9.9388C2.22998 9.44265 2.63266 9.03998 3.12881 9.03998C3.62496 9.03998 4.02764 9.44265 4.02764 9.9388V12.1526C4.02764 12.6488 3.62541 13.0514 3.12881 13.0514Z" fill="#A4A4A4" fill-rule="evenodd"/>
<path clip-rule="evenodd" d="M18.8187 13.0514C18.3226 13.0514 17.9199 12.6488 17.9199 12.1526V9.9388C17.9199 9.44265 18.3226 9.03998 18.8187 9.03998C19.3149 9.03998 19.7176 9.44265 19.7176 9.9388V12.1526C19.7176 12.6488 19.3149 13.0514 18.8187 13.0514Z" fill="#A4A4A4" fill-rule="evenodd"/>
<path clip-rule="evenodd" d="M19.2664 20.0776H2.67861C2.18246 20.0776 1.77979 19.6749 1.77979 19.1788C1.77979 18.6826 2.18246 18.28 2.67861 18.28H19.266C19.7621 18.28 20.1648 18.6826 20.1648 19.1788C20.1648 19.6749 19.7626 20.0776 19.2664 20.0776V20.0776Z" fill="#A4A4A4" fill-rule="evenodd"/>
</svg>
