<svg width="19" height="25" viewBox="0 0 19 25" fill="none" xmlns="http://www.w3.org/2000/svg">
<g clip-path="url(#clip0_7_2803)">
<path d="M9.49998 11.1111C12.4981 11.1111 14.9286 8.62381 14.9286 5.55556C14.9286 2.48731 12.4981 0 9.49998 0C6.50187 0 4.07141 2.48731 4.07141 5.55556C4.07141 8.62381 6.50187 11.1111 9.49998 11.1111Z" fill="white"/>
<path d="M19 19.4444V20.8333C19 21.9384 18.571 22.9982 17.8075 23.7796C17.044 24.561 16.0084 25 14.9286 25H4.07143C2.99162 25 1.95604 24.561 1.1925 23.7796C0.428955 22.9982 0 21.9384 0 20.8333V19.4444C0 17.6027 0.714921 15.8363 1.98749 14.534C3.26006 13.2316 4.98603 12.5 6.78571 12.5H12.2143C14.014 12.5 15.7399 13.2316 17.0125 14.534C18.2851 15.8363 19 17.6027 19 19.4444Z" fill="white"/>
</g>
<defs>
<clipPath id="clip0_7_2803">
<rect width="19" height="25" fill="white"/>
</clipPath>
</defs>
</svg>
