<svg fill="none" height="21" viewBox="0 0 28 21" width="28" xmlns="http://www.w3.org/2000/svg">
<path clip-rule="evenodd" d="M24.1066 7.11406C24.0386 7.18203 23.9593 7.25 23.8687 7.31797C23.8007 7.35195 23.7441 7.38594 23.6875 7.44258C23.3476 7.64648 22.9625 7.75977 22.566 7.75977C21.9882 7.75977 21.4445 7.5332 21.0254 7.11406C19.4734 5.61875 16.8566 5.61875 15.2933 7.11406C14.8629 7.52187 14.3078 7.74844 13.73 7.75977C13.1523 7.75977 12.5859 7.5332 12.1554 7.11406C11.3625 6.36641 10.3089 5.99258 9.26677 5.99258C8.22458 5.99258 7.1824 6.36641 6.42341 7.12539C6.0156 7.5332 5.47185 7.75977 4.89412 7.75977C4.50896 7.75977 4.13513 7.65781 3.79529 7.46524C3.73865 7.39727 3.65935 7.35195 3.58005 7.31797C3.50076 7.26133 3.42146 7.19336 3.34216 7.11406C2.77576 6.58164 2.06208 6.21914 1.31443 6.07188L2.95701 1.12148H24.5144L26.157 6.07188C25.3867 6.21914 24.6843 6.57031 24.1066 7.11406ZM23.5289 16.5277H3.93123L3.94255 8.72266C4.24841 8.81328 4.5656 8.86992 4.89412 8.86992C5.76638 8.86992 6.59333 8.53008 7.21638 7.90703C8.31521 6.8082 10.2297 6.81953 11.3964 7.91836C12.0308 8.53008 12.8578 8.86992 13.73 8.86992C14.6023 8.86992 15.4293 8.53008 16.0636 7.91836C17.2078 6.81953 19.1222 6.81953 20.2437 7.90703C20.8668 8.53008 21.6824 8.86992 22.566 8.86992C22.8945 8.86992 23.2117 8.81328 23.5289 8.72266V16.5277ZM23.5289 19.8582H3.93123V17.6266H23.5175L23.5289 19.8582ZM27.3918 6.26445L25.4433 0.38516C25.364 0.1586 25.1601 0 24.9222 0H2.54919C2.3113 0 2.09607 0.14727 2.0281 0.38516L0.0683262 6.26445C0.0230162 6.34375 0.000356191 6.42305 0.000356191 6.525C-0.0109738 6.83086 0.249576 7.08008 0.555436 7.09141C1.31443 7.11406 2.03943 7.39727 2.57185 7.90703C2.65115 7.98633 2.74177 8.06563 2.8324 8.14492L2.82107 20.4246C2.82107 20.5719 2.87771 20.7078 2.97966 20.8211C3.08162 20.923 3.22888 20.9797 3.37615 20.9797H24.0839C24.3898 20.9797 24.639 20.7305 24.639 20.4246V8.13359C24.7183 8.06563 24.8089 7.99766 24.8769 7.91836C25.432 7.40859 26.1457 7.11406 26.916 7.09141C27.2218 7.08008 27.4597 6.81953 27.4597 6.525C27.4597 6.43438 27.4257 6.34375 27.3918 6.26445Z" fill="#A4A4A4" fill-rule="evenodd"/>
</svg>
