<svg width="25" height="25" viewBox="0 0 25 25" fill="none" xmlns="http://www.w3.org/2000/svg">
<g clip-path="url(#clip0_7_2808)">
<path d="M16.6667 25L22.2222 25C23.7563 25 25 23.7563 25 22.2222L25 16.6667C25 15.1325 23.7563 13.8889 22.2222 13.8889L16.6667 13.8889C15.1325 13.8889 13.8889 15.1325 13.8889 16.6667L13.8889 22.2222C13.8889 23.7563 15.1325 25 16.6667 25Z" fill="white"/>
<path d="M16.6667 11.1111L22.2222 11.1111C23.7563 11.1111 25 9.86743 25 8.33331L25 2.77775C25 1.24363 23.7563 -2.75478e-05 22.2222 -2.74137e-05L16.6667 -2.6928e-05C15.1325 -2.67939e-05 13.8889 1.24363 13.8889 2.77775L13.8889 8.33331C13.8889 9.86743 15.1325 11.1111 16.6667 11.1111Z" fill="white"/>
<path d="M2.77775 11.1111L8.33331 11.1111C9.86743 11.1111 11.1111 9.86743 11.1111 8.33331L11.1111 2.77775C11.1111 1.24363 9.86743 -2.75478e-05 8.33331 -2.74137e-05L2.77775 -2.6928e-05C1.24363 -2.67939e-05 -2.66118e-05 1.24363 -2.64777e-05 2.77775L-2.5992e-05 8.33331C-2.58579e-05 9.86743 1.24363 11.1111 2.77775 11.1111Z" fill="white"/>
<path d="M5.55553 13.8889C2.48728 13.8889 -2.65031e-05 16.3762 -2.62349e-05 19.4444C-2.59667e-05 22.5127 2.48728 25 5.55553 25C8.62378 25 11.1111 22.5127 11.1111 19.4444C11.1111 16.3762 8.62378 13.8889 5.55553 13.8889Z" fill="white"/>
</g>
<defs>
<clipPath id="clip0_7_2808">
<rect width="25" height="25" fill="white" transform="translate(25 25) rotate(180)"/>
</clipPath>
</defs>
</svg>
