<svg width="57" height="38" viewBox="0 0 57 38" fill="none" xmlns="http://www.w3.org/2000/svg">
<path d="M57 25.175C57 26.6 54.15 27.55 50.825 28.025C48.6875 23.9875 44.4125 20.9 39.425 18.7625C39.9 18.05 40.375 17.575 40.85 16.8625H42.75C50.1125 16.625 57 21.1375 57 25.175ZM16.15 16.625H14.25C6.8875 16.625 0 21.1375 0 25.175C0 26.6 2.85 27.55 6.175 28.025C8.3125 23.9875 12.5875 20.9 17.575 18.7625L16.15 16.625ZM28.5 19C33.725 19 38 14.725 38 9.5C38 4.275 33.725 0 28.5 0C23.275 0 19 4.275 19 9.5C19 14.725 23.275 19 28.5 19ZM28.5 21.375C18.7625 21.375 9.5 27.55 9.5 33.25C9.5 38 28.5 38 28.5 38C28.5 38 47.5 38 47.5 33.25C47.5 27.55 38.2375 21.375 28.5 21.375ZM42.0375 14.25H42.75C46.7875 14.25 49.875 11.1625 49.875 7.125C49.875 3.0875 46.7875 0 42.75 0C41.5625 0 40.6125 0.2375 39.6625 0.7125C41.5625 3.0875 42.75 6.175 42.75 9.5C42.75 11.1625 42.5125 12.825 42.0375 14.25ZM14.25 14.25H14.9625C14.4875 12.825 14.25 11.1625 14.25 9.5C14.25 6.175 15.4375 3.0875 17.3375 0.7125C16.3875 0.2375 15.4375 0 14.25 0C10.2125 0 7.125 3.0875 7.125 7.125C7.125 11.1625 10.2125 14.25 14.25 14.25Z" fill="#F4891E"/>
</svg>
