<svg fill="none" height="180" viewBox="0 0 180 180" width="180" xmlns="http://www.w3.org/2000/svg">
<path d="M89.9999 171.911C131.518 171.911 165.175 152.479 165.175 128.509C165.175 104.539 131.518 85.1077 89.9999 85.1077C48.4818 85.1077 14.8247 104.539 14.8247 128.509C14.8247 152.479 48.4818 171.911 89.9999 171.911Z" fill="#F5F5F5"/>
<path d="M101.797 158.904C110.776 158.904 118.055 154.702 118.055 149.519C118.055 144.336 110.776 140.134 101.797 140.134C92.8183 140.134 85.5396 144.336 85.5396 149.519C85.5396 154.702 92.8183 158.904 101.797 158.904Z" fill="#E0E0E0"/>
<path d="M93.3482 117.738L49.8638 142.848C48.6398 143.568 46.505 143.467 45.0902 142.65L29.6534 133.736C28.2422 132.923 28.0874 131.688 29.2934 130.982L72.7778 105.872C74.0018 105.152 76.1366 105.253 77.5514 106.07L92.9882 114.984C94.4174 115.798 94.5722 117.032 93.3482 117.738Z" fill="#E0E0E0"/>
<path d="M140.169 126.504L143.597 128.495C143.597 128.495 141.869 122.98 142.826 117.428C143.058 116.121 143.53 114.869 144.219 113.735C144.489 113.173 146.556 109.714 144.738 108.115C142.92 106.517 138.654 109.696 138.845 118.242C138.936 121.041 139.381 123.817 140.169 126.504Z" fill="#F4891E"/>
<path d="M140.169 126.504L143.597 128.495C143.597 128.495 141.869 122.98 142.826 117.428C143.058 116.121 143.53 114.869 144.219 113.735C144.489 113.173 146.556 109.714 144.738 108.115C142.92 106.517 138.654 109.696 138.845 118.242C138.936 121.041 139.381 123.817 140.169 126.504Z" fill="black" opacity="0.5"/>
<path d="M141.764 127.588C141.732 127.587 141.7 127.577 141.674 127.559C141.648 127.54 141.627 127.514 141.616 127.483C141.616 127.447 140.31 123.851 140.378 118.084C140.446 112.316 143.496 109.184 143.528 109.156C143.542 109.141 143.559 109.13 143.578 109.122C143.596 109.114 143.616 109.11 143.636 109.11C143.656 109.11 143.676 109.114 143.695 109.122C143.713 109.13 143.73 109.141 143.744 109.156C143.759 109.17 143.77 109.187 143.778 109.206C143.786 109.225 143.79 109.245 143.79 109.265C143.79 109.286 143.786 109.306 143.778 109.325C143.77 109.344 143.759 109.361 143.744 109.375C143.715 109.404 140.756 112.417 140.688 118.087C140.619 123.757 141.897 127.343 141.908 127.379C141.916 127.398 141.919 127.418 141.919 127.438C141.918 127.458 141.913 127.478 141.905 127.497C141.897 127.515 141.885 127.532 141.87 127.546C141.855 127.559 141.837 127.57 141.818 127.577L141.764 127.588Z" fill="white"/>
<path d="M142.826 128.059L148.486 131.4C148.486 131.4 151.078 131.018 150.883 128.578C150.689 126.137 149.634 125.564 150.944 124.492C152.255 123.419 152.593 123.35 152.528 122.299C152.464 121.248 151.762 120.791 151.427 120.377C151.092 119.963 150.17 119.084 150.822 117.821C151.474 116.557 152.356 115.33 151.045 114.746C150.26 114.386 148.943 114.836 148.072 115.762C147.2 116.687 146.477 117.356 145.652 117.562C144.828 117.767 143.1 117.792 143.158 119.218C143.215 120.643 143.586 121.136 143.24 121.766C142.589 122.958 139.806 123.602 142.826 128.059Z" fill="#F4891E"/>
<path d="M142.826 128.059L148.486 131.4C148.486 131.4 151.078 131.018 150.883 128.578C150.689 126.137 149.634 125.564 150.944 124.492C152.255 123.419 152.593 123.35 152.528 122.299C152.464 121.248 151.762 120.791 151.427 120.377C151.092 119.963 150.17 119.084 150.822 117.821C151.474 116.557 152.356 115.33 151.045 114.746C150.26 114.386 148.943 114.836 148.072 115.762C147.2 116.687 146.477 117.356 145.652 117.562C144.828 117.767 143.1 117.792 143.158 119.218C143.215 120.643 143.586 121.136 143.24 121.766C142.589 122.958 139.806 123.602 142.826 128.059Z" fill="black" opacity="0.2"/>
<path d="M145.13 129.571C145.091 129.571 145.053 129.556 145.024 129.53C144.996 129.503 144.978 129.466 144.975 129.427C144.975 129.344 144.356 120.906 150.217 115.366C150.247 115.337 150.287 115.322 150.328 115.324C150.369 115.325 150.408 115.343 150.437 115.373C150.465 115.403 150.48 115.443 150.478 115.484C150.477 115.525 150.459 115.564 150.429 115.592C144.669 121.028 145.281 129.319 145.289 129.402C145.292 129.443 145.278 129.484 145.251 129.516C145.224 129.548 145.186 129.568 145.145 129.571H145.13Z" fill="white"/>
<path d="M146.16 122.339C146.121 122.339 146.083 122.324 146.054 122.297C146.025 122.271 146.008 122.234 146.005 122.195C145.961 121.547 145.786 120.915 145.49 120.337C145.194 119.759 144.784 119.247 144.284 118.832C144.268 118.82 144.254 118.805 144.243 118.788C144.232 118.77 144.225 118.751 144.222 118.731C144.219 118.71 144.22 118.69 144.225 118.67C144.229 118.65 144.238 118.631 144.25 118.615C144.262 118.598 144.277 118.584 144.295 118.573C144.312 118.563 144.332 118.556 144.352 118.552C144.372 118.549 144.393 118.55 144.413 118.555C144.433 118.56 144.451 118.568 144.468 118.58C145.008 119.02 145.451 119.567 145.768 120.187C146.086 120.807 146.272 121.485 146.315 122.18C146.318 122.221 146.305 122.261 146.278 122.292C146.252 122.323 146.215 122.342 146.174 122.346L146.16 122.339Z" fill="white"/>
<path d="M145.728 123.779C145.689 123.779 145.652 123.765 145.623 123.739C145.595 123.71 145.579 123.67 145.579 123.629C145.579 123.588 145.595 123.549 145.623 123.52C145.685 123.451 147.161 121.856 150.573 122.324C150.614 122.331 150.65 122.354 150.675 122.386C150.699 122.419 150.711 122.46 150.707 122.501C150.7 122.542 150.678 122.578 150.645 122.603C150.612 122.628 150.571 122.639 150.53 122.634C147.29 122.191 145.868 123.714 145.85 123.714C145.837 123.734 145.819 123.751 145.797 123.762C145.776 123.773 145.752 123.779 145.728 123.779Z" fill="white"/>
<path d="M36.4029 121.658L34.7145 125.24C34.7145 125.24 33.0045 119.718 29.0661 115.69C28.1367 114.743 27.0376 113.98 25.8261 113.44C25.2897 113.13 21.6249 111.452 22.2261 109.12C22.8273 106.787 28.1301 106.96 32.8245 114.113C34.3306 116.467 35.5329 119.002 36.4029 121.658Z" fill="#F4891E"/>
<path d="M36.4029 121.658L34.7145 125.24C34.7145 125.24 33.0045 119.718 29.0661 115.69C28.1367 114.743 27.0376 113.98 25.8261 113.44C25.2897 113.13 21.6249 111.452 22.2261 109.12C22.8273 106.787 28.1301 106.96 32.8245 114.113C34.3306 116.467 35.5329 119.002 36.4029 121.658Z" fill="black" opacity="0.5"/>
<path d="M35.6182 123.48C35.5839 123.48 35.5507 123.468 35.5234 123.448C35.4961 123.427 35.4763 123.398 35.467 123.365C35.467 123.329 34.495 119.682 31.201 115.02C27.907 110.358 23.785 109.588 23.7598 109.58C23.7397 109.577 23.7204 109.569 23.7032 109.559C23.6859 109.548 23.671 109.533 23.6593 109.517C23.6476 109.5 23.6393 109.481 23.635 109.461C23.6306 109.441 23.6302 109.42 23.6338 109.4C23.6417 109.36 23.6648 109.325 23.6984 109.301C23.732 109.278 23.7733 109.268 23.8138 109.274C23.857 109.274 28.1338 110.102 31.4746 114.84C34.8154 119.578 35.7946 123.25 35.7946 123.286C35.8045 123.326 35.7984 123.368 35.7776 123.404C35.7567 123.439 35.7228 123.465 35.683 123.476L35.6182 123.48Z" fill="white"/>
<path d="M35.0998 124.448L32.3278 130.399C32.3278 130.399 29.977 131.555 28.7566 129.434C27.5362 127.314 28.0726 126.245 26.3878 126.104C24.703 125.964 24.379 126.104 23.8354 125.201C23.2918 124.297 23.6122 123.52 23.6518 122.99C23.6914 122.461 23.9578 121.212 22.7014 120.539C21.445 119.866 20.023 119.362 20.7754 118.138C21.2218 117.418 22.5538 117.018 23.7994 117.288C25.045 117.558 26.0134 117.695 26.8162 117.403C27.619 117.112 29.0482 116.147 29.8114 117.353C30.5746 118.559 30.5314 119.174 31.1902 119.513C32.3998 120.11 35.0566 119.059 35.0998 124.448Z" fill="#F4891E"/>
<path d="M35.0998 124.448L32.3278 130.399C32.3278 130.399 29.977 131.555 28.7566 129.434C27.5362 127.314 28.0726 126.245 26.3878 126.104C24.703 125.964 24.379 126.104 23.8354 125.201C23.2918 124.297 23.6122 123.52 23.6518 122.99C23.6914 122.461 23.9578 121.212 22.7014 120.539C21.445 119.866 20.023 119.362 20.7754 118.138C21.2218 117.418 22.5538 117.018 23.7994 117.288C25.045 117.558 26.0134 117.695 26.8162 117.403C27.619 117.112 29.0482 116.147 29.8114 117.353C30.5746 118.559 30.5314 119.174 31.1902 119.513C32.3998 120.11 35.0566 119.059 35.0998 124.448Z" fill="black" opacity="0.2"/>
<path d="M33.9693 127.026C33.942 127.026 33.9152 127.019 33.8917 127.005C33.8683 126.991 33.849 126.971 33.8361 126.947C33.7929 126.875 29.5845 119.707 21.7653 118.494C21.7448 118.491 21.7252 118.484 21.7075 118.473C21.6899 118.462 21.6746 118.448 21.6625 118.431C21.6504 118.414 21.6418 118.395 21.6372 118.375C21.6326 118.355 21.6321 118.334 21.6357 118.314C21.6383 118.294 21.645 118.274 21.6554 118.256C21.6657 118.239 21.6796 118.223 21.6961 118.211C21.7126 118.199 21.7314 118.191 21.7513 118.186C21.7712 118.181 21.7919 118.181 21.8121 118.184C29.7825 119.423 34.0521 126.72 34.1061 126.792C34.1191 126.816 34.1257 126.843 34.1253 126.87C34.1248 126.897 34.1174 126.924 34.1036 126.947C34.0899 126.971 34.0703 126.991 34.0467 127.004C34.0232 127.018 33.9965 127.026 33.9693 127.026Z" fill="white"/>
<path d="M29.034 121.648C29.0062 121.647 28.979 121.64 28.955 121.626C28.931 121.612 28.9111 121.592 28.8972 121.568C28.5397 120.972 28.3094 120.308 28.2208 119.619C28.1322 118.929 28.1872 118.229 28.3824 117.562C28.3892 117.542 28.3998 117.525 28.4135 117.51C28.4271 117.495 28.4436 117.482 28.462 117.474C28.4804 117.465 28.5003 117.46 28.5206 117.459C28.5409 117.458 28.5612 117.461 28.5804 117.468C28.5995 117.475 28.6171 117.485 28.6322 117.499C28.6473 117.513 28.6595 117.529 28.6682 117.548C28.6769 117.566 28.6819 117.586 28.6829 117.606C28.6839 117.626 28.6808 117.647 28.674 117.666C28.498 118.291 28.4503 118.945 28.5338 119.589C28.6173 120.233 28.8303 120.854 29.16 121.414C29.1703 121.431 29.1769 121.451 29.1796 121.471C29.1822 121.491 29.1809 121.512 29.1755 121.532C29.1702 121.551 29.1609 121.57 29.1484 121.586C29.1358 121.602 29.1202 121.616 29.1024 121.626C29.0818 121.639 29.0583 121.646 29.034 121.648Z" fill="white"/>
<path d="M25.5813 124.384C25.5597 124.383 25.5384 124.379 25.5186 124.37C25.4988 124.361 25.481 124.349 25.4661 124.333C25.4516 124.319 25.4401 124.302 25.4323 124.283C25.4244 124.264 25.4204 124.244 25.4204 124.223C25.4204 124.203 25.4244 124.183 25.4323 124.164C25.4401 124.145 25.4516 124.128 25.4661 124.114C28.0077 121.792 30.1461 122.267 30.2181 122.288C30.238 122.293 30.2568 122.302 30.2733 122.314C30.2899 122.325 30.304 122.341 30.3147 122.358C30.3254 122.375 30.3326 122.395 30.3357 122.415C30.3389 122.435 30.3381 122.456 30.3333 122.476C30.3291 122.496 30.3208 122.515 30.309 122.532C30.2972 122.548 30.282 122.563 30.2645 122.574C30.247 122.584 30.2274 122.591 30.2071 122.594C30.1867 122.597 30.166 122.596 30.1461 122.591C30.1245 122.591 28.0869 122.141 25.6749 124.344C25.6486 124.367 25.6159 124.381 25.5813 124.384Z" fill="white"/>
<path d="M35.1397 49.14C35.1401 48.0917 35.416 47.0621 35.9398 46.1541C36.4636 45.2461 37.2168 44.4918 38.1241 43.9668L76.1113 22.0356C76.3647 21.8894 76.6477 21.802 76.9393 21.7795C77.231 21.7571 77.524 21.8003 77.7968 21.906C78.0696 22.0116 78.3153 22.1771 78.5157 22.3901C78.7162 22.6032 78.8664 22.8584 78.9553 23.1372C78.8533 22.6906 78.6624 22.2692 78.394 21.8981C78.1255 21.527 77.785 21.2138 77.3929 20.9772L77.2561 20.898C76.3107 20.3356 75.2313 20.0383 74.1313 20.0376C73.7797 20.0342 73.4338 20.1263 73.1305 20.304L35.1433 42.246C34.2346 42.7697 33.48 43.5237 32.9555 44.4318C32.4309 45.34 32.1549 46.3704 32.1553 47.4192V129.568C32.1557 129.911 32.2463 130.248 32.4181 130.545C32.5898 130.842 32.8366 131.089 33.1338 131.261C33.4309 131.432 33.768 131.523 34.1112 131.523C34.4544 131.524 34.7917 131.434 35.0893 131.263L35.1397 131.234V49.14Z" fill="#37474F"/>
<path d="M76.0608 111.053L38.0736 132.984C37.7765 133.156 37.4393 133.247 37.096 133.247C36.7526 133.247 36.4153 133.157 36.1179 132.985C35.8205 132.814 35.5735 132.567 35.4018 132.27C35.23 131.973 35.1396 131.635 35.1396 131.292V49.14C35.14 48.0918 35.4159 47.0621 35.9397 46.1541C36.4635 45.2461 37.2168 44.4918 38.124 43.9668L76.1112 22.0356C76.4088 21.8646 76.7461 21.7748 77.0893 21.7753C77.4325 21.7757 77.7696 21.8663 78.0668 22.0381C78.3639 22.2098 78.6107 22.4566 78.7825 22.7537C78.9542 23.0509 79.0448 23.388 79.0453 23.7312V105.88C79.0456 106.928 78.77 107.958 78.2461 108.866C77.7222 109.774 76.9686 110.528 76.0608 111.053Z" fill="#455A64"/>
<path d="M35.1397 131.292V49.1399C35.1401 48.2449 35.3419 47.3615 35.7301 46.5551L32.7925 44.7551C32.3741 45.5873 32.1559 46.5057 32.1553 47.4371V130.273C32.1553 130.599 32.24 130.919 32.4009 131.203C32.5618 131.486 32.7935 131.723 33.0733 131.89L34.5889 132.79C35.1134 133.103 35.7131 133.268 36.3241 133.268H37.0801C36.8229 133.266 36.5687 133.213 36.332 133.112C36.0953 133.012 35.8807 132.866 35.7005 132.682C35.5203 132.498 35.3781 132.281 35.2818 132.043C35.1856 131.804 35.1373 131.549 35.1397 131.292Z" fill="#263238"/>
<path d="M74.754 29.934V99C74.7532 99.9259 74.509 100.835 74.0459 101.637C73.5827 102.439 72.9169 103.105 72.1152 103.568L38.5704 122.933C38.3175 123.08 38.0311 123.159 37.7388 123.163C37.8355 123.387 37.9786 123.588 38.1585 123.752C38.3385 123.917 38.5512 124.042 38.7828 124.118C39.0144 124.195 39.2595 124.221 39.5021 124.196C39.7447 124.171 39.9793 124.095 40.1904 123.973L73.7352 104.605C74.5367 104.142 75.2022 103.476 75.6648 102.674C76.1274 101.872 76.3707 100.963 76.3704 100.037V31.6548C76.3712 31.2159 76.2043 30.7933 75.9038 30.4734C75.6033 30.1536 75.192 29.9606 74.754 29.934Z" fill="#37474F"/>
<path d="M37.739 123.145C38.0314 123.141 38.3178 123.062 38.5706 122.915L72.1154 103.55C72.9145 103.089 73.5787 102.425 74.0417 101.627C74.5047 100.829 74.7503 99.9229 74.7542 99V29.934C74.4175 29.9368 74.0855 30.0143 73.7822 30.1608L40.2374 49.5252C39.4352 49.9879 38.769 50.6537 38.3058 51.4557C37.8425 52.2576 37.5986 53.1674 37.5986 54.0936V122.458C37.5983 122.698 37.6473 122.935 37.7426 123.156L37.739 123.145Z" fill="#F4891E"/>
<g opacity="0.5">
<path d="M37.739 123.145C38.0314 123.141 38.3178 123.062 38.5706 122.915L72.1154 103.55C72.9145 103.089 73.5787 102.425 74.0417 101.627C74.5047 100.829 74.7503 99.9229 74.7542 99V29.934C74.4175 29.9368 74.0855 30.0143 73.7822 30.1608L40.2374 49.5252C39.4352 49.9879 38.769 50.6537 38.3058 51.4557C37.8425 52.2576 37.5986 53.1674 37.5986 54.0936V122.458C37.5983 122.698 37.6473 122.935 37.7426 123.156L37.739 123.145Z" fill="white"/>
</g>
<path d="M51.7753 39.4055C51.7639 39.615 51.7036 39.8188 51.5992 40.0007C51.4948 40.1827 51.3492 40.3376 51.1741 40.4531C50.8393 40.6439 50.5693 40.4891 50.5693 40.0931C50.5809 39.8833 50.6416 39.6791 50.7467 39.4972C50.8518 39.3152 50.9982 39.1605 51.1741 39.0455C51.5053 38.8799 51.7753 39.0203 51.7753 39.4055Z" fill="#263238"/>
<path d="M54.0255 38.1096C54.0134 38.3192 53.9524 38.5232 53.8474 38.7051C53.7424 38.887 53.5963 39.0418 53.4207 39.1572C53.0859 39.348 52.8159 39.1932 52.8159 38.7972C52.8275 38.5873 52.8882 38.3832 52.9933 38.2012C53.0984 38.0192 53.2448 37.8645 53.4207 37.7496C53.7519 37.5696 54.0255 37.7244 54.0255 38.1096Z" fill="#263238"/>
<path d="M63.0936 33.57L55.8 37.8C55.5084 37.9656 55.2744 37.8 55.2744 37.404C55.2775 37.2076 55.3266 37.0148 55.4179 36.8409C55.5092 36.6671 55.6401 36.5171 55.8 36.4032L63.1044 32.1876C63.3924 32.0184 63.6264 32.1876 63.6264 32.58C63.6206 32.775 63.5694 32.966 63.4769 33.1379C63.3844 33.3097 63.2532 33.4577 63.0936 33.57Z" fill="#263238"/>
<path d="M61.8588 113.645C62.2944 113.645 62.5788 114.109 62.5788 114.826C62.5788 115.949 61.8768 117.306 61.0416 117.788L57.546 119.808C57.3898 119.905 57.2114 119.961 57.0276 119.97C56.592 119.97 56.3076 119.506 56.3076 118.789C56.3076 117.662 57.0276 116.305 57.8448 115.826L61.3404 113.807C61.4976 113.709 61.6774 113.653 61.8624 113.645M61.8624 113.346C61.6248 113.353 61.3935 113.424 61.1928 113.551L57.6972 115.567C56.7648 116.104 56.0088 117.547 56.0088 118.807C56.0088 119.732 56.43 120.287 57.0276 120.287C57.2652 120.28 57.4964 120.209 57.6972 120.082L61.1928 118.066C62.1216 117.529 62.8776 116.086 62.8776 114.826C62.8776 113.9 62.46 113.346 61.8624 113.346Z" fill="#263238"/>
<path d="M42.5483 58.9357V136.336C42.5483 137.74 43.0631 138.679 43.8479 138.989H43.8695L47.2175 140.821L47.1959 137.848L46.8359 57.5928L43.3043 55.7928C42.8304 56.7743 42.5726 57.846 42.5483 58.9357Z" fill="#E6E6E6"/>
<path d="M47.401 141.12L43.7794 139.136C42.883 138.776 42.3682 137.722 42.3682 136.318V58.9176C42.3873 57.795 42.6489 56.6897 43.135 55.6776L43.2142 55.5084L47.0086 57.4488V57.5568L47.3686 137.812L47.401 141.12ZM43.963 138.827L47.0374 140.512V137.84L46.6774 57.6936L43.4122 56.0232C42.9991 56.9359 42.7762 57.9232 42.757 58.9248V136.325C42.757 137.592 43.1998 138.521 43.945 138.812L43.9882 138.834L43.963 138.827Z" fill="#E6E6E6"/>
<path d="M43.2969 55.8L46.8285 57.6L84.6285 35.6076L87.1485 34.1388L83.6601 32.1732L83.5629 32.1156C83.0049 31.7808 82.2777 31.8024 81.4749 32.2668L45.6981 52.92C44.6295 53.6202 43.7935 54.6228 43.2969 55.8Z" fill="#E0E0E0"/>
<path d="M46.8285 57.7764C46.7996 57.7761 46.7712 57.7687 46.7458 57.7548L43.2141 55.9548C43.1934 55.9448 43.1749 55.9308 43.1596 55.9136C43.1444 55.8964 43.1327 55.8763 43.1253 55.8545C43.118 55.8327 43.115 55.8096 43.1167 55.7867C43.1183 55.7637 43.1245 55.7413 43.1349 55.7208C43.6495 54.514 44.5102 53.4868 45.6081 52.7688L81.3921 32.1084C82.2201 31.6332 83.0266 31.5792 83.6601 31.9608H83.6889L83.7609 32.004L87.2458 33.966C87.273 33.9826 87.2956 34.0058 87.3113 34.0335C87.3271 34.0612 87.3355 34.0925 87.3358 34.1244C87.3363 34.156 87.3282 34.1871 87.3124 34.2144C87.2965 34.2417 87.2735 34.2641 87.2458 34.2792L46.9258 57.7404C46.8974 57.7613 46.8637 57.7738 46.8285 57.7764ZM43.5345 55.7064L46.825 57.3912L86.785 34.1388L83.4693 32.2668L83.4441 32.2452C82.9293 31.95 82.2634 32.0112 81.565 32.4144L45.7809 53.0748C44.7974 53.7209 44.0182 54.6337 43.5345 55.7064Z" fill="#E0E0E0"/>
<path d="M46.0112 60.8797V137.92C46.0112 139.133 46.4 140.004 47.0156 140.414L47.2208 140.526C47.7572 140.778 48.4304 140.724 49.1612 140.299L66.4592 130.32L84.9596 119.196C85.9071 118.603 86.6916 117.784 87.2423 116.811C87.793 115.839 88.0923 114.744 88.1132 113.627V36.5869C88.1132 35.4133 87.7532 34.5637 87.17 34.1353C87.0716 34.0615 86.9639 34.001 86.8496 33.9553C86.5375 33.8449 86.2038 33.8095 85.8754 33.8521C85.5471 33.8946 85.2334 34.0138 84.9596 34.2001L49.1756 55.2097C48.1661 55.738 47.3495 56.5722 46.8428 57.5929C46.3234 58.6125 46.0392 59.7357 46.0112 60.8797Z" fill="#FAFAFA"/>
<path d="M84.9596 119.196C77.5976 123.588 58.442 135.018 48.9596 140.731C48.6767 140.9 48.354 140.992 48.0244 140.996C47.6947 141 47.3699 140.916 47.0831 140.754C46.7962 140.591 46.5575 140.356 46.3914 140.071C46.2252 139.786 46.1375 139.462 46.1372 139.133V59.9112C46.1372 59.0093 46.3731 58.1232 46.8215 57.3407C47.2698 56.5583 47.9151 55.9067 48.6932 55.4508L85.118 34.0956C85.401 33.9305 85.7225 33.8429 86.0501 33.8416C86.3777 33.8402 86.6998 33.9252 86.9842 34.088C87.2685 34.2508 87.5049 34.4856 87.6696 34.7688C87.8343 35.052 87.9215 35.3736 87.9224 35.7012V113.951C87.9228 115.006 87.6502 116.044 87.1311 116.963C86.6119 117.882 85.8639 118.651 84.9596 119.196Z" fill="#FAFAFA"/>
<path d="M84.8551 119.038C79.0735 122.479 73.2943 125.93 67.5175 129.391L57.2575 135.529L52.5775 138.337L50.5291 139.568C49.8991 139.946 49.2295 140.486 48.5311 140.728C47.3755 141.131 46.3351 140.206 46.3063 139.064C46.3063 138.881 46.3063 138.704 46.3063 138.514V65.88C46.3063 63.9468 46.3063 62.01 46.3063 60.0768C46.2931 59.1615 46.5244 58.2593 46.9762 57.4632C47.428 56.6671 48.0841 56.0059 48.8767 55.548C49.7119 55.0548 50.5507 54.5688 51.3967 54.0792L63.1543 47.16L77.1043 38.9844C79.7503 37.4364 82.3891 35.874 85.0243 34.3332C85.8451 33.858 86.8783 33.9048 87.4507 34.7652C87.6532 35.1087 87.7485 35.5048 87.7243 35.9028V113.648C87.7605 114.722 87.5134 115.786 87.0078 116.734C86.5023 117.682 85.7561 118.48 84.8443 119.048C84.6463 119.171 84.8263 119.484 85.0243 119.362C85.9832 118.768 86.7706 117.934 87.3085 116.943C87.8465 115.952 88.1164 114.837 88.0915 113.71V41.4396C88.0915 39.5604 88.1095 37.6776 88.0915 35.7948C88.1008 35.4179 88.0072 35.0456 87.8209 34.7178C87.6346 34.39 87.3626 34.1191 87.0341 33.9341C86.7056 33.7491 86.3329 33.657 85.956 33.6677C85.5791 33.6784 85.2123 33.7915 84.8947 33.9948C84.0163 34.5024 83.1451 35.0208 82.2739 35.532L70.1995 42.6348L56.1235 50.886C53.6395 52.344 51.1195 53.7912 48.6463 55.26C47.8137 55.75 47.1253 56.4511 46.6505 57.2924C46.1758 58.1338 45.9316 59.0856 45.9427 60.0516C45.9427 60.6996 45.9427 61.3476 45.9427 61.9956V138.758C45.9427 138.881 45.9427 139.007 45.9427 139.118C45.9466 139.44 46.0257 139.757 46.1736 140.043C46.3216 140.329 46.5343 140.576 46.7948 140.766C47.0553 140.955 47.3565 141.08 47.6742 141.133C47.9919 141.185 48.3174 141.162 48.6247 141.066C49.3051 140.839 49.9459 140.328 50.5579 139.961L52.6459 138.704L57.3259 135.904C64.1323 131.824 70.9447 127.751 77.7631 123.685L85.0459 119.34C85.2331 119.232 85.0532 118.919 84.8551 119.038Z" fill="#EBEBEB"/>
<path d="M48.679 55.44L85.1182 34.0956C85.4012 33.9305 85.7227 33.8429 86.0503 33.8416C86.3779 33.8402 86.7 33.9252 86.9844 34.088C87.2687 34.2508 87.5051 34.4856 87.6698 34.7688C87.8345 35.052 87.9217 35.3736 87.9226 35.7012V39.1392L46.1338 63.2592V59.904C46.132 59.0026 46.366 58.1164 46.8125 57.3333C47.2589 56.5503 47.9024 55.8976 48.679 55.44Z" fill="#EBEBEB"/>
<path d="M73.7138 74.1806C77.4089 67.7805 77.409 60.8627 73.7139 58.7293C70.0188 56.596 64.0278 60.0549 60.3327 66.455C56.6376 72.8551 56.6376 79.7729 60.3327 81.9063C64.0278 84.0396 70.0187 80.5807 73.7138 74.1806Z" fill="#F4891E"/>
<path d="M73.7138 74.1806C77.4089 67.7805 77.409 60.8627 73.7139 58.7293C70.0188 56.596 64.0278 60.0549 60.3327 66.455C56.6376 72.8551 56.6376 79.7729 60.3327 81.9063C64.0278 84.0396 70.0187 80.5807 73.7138 74.1806Z" fill="white" opacity="0.5"/>
<path d="M65.3252 70.3585C65.2694 70.3585 65.2142 70.3475 65.1626 70.3261C65.1111 70.3048 65.0643 70.2735 65.0248 70.234C64.9854 70.1946 64.9541 70.1478 64.9327 70.0962C64.9114 70.0447 64.9004 69.9894 64.9004 69.9337V67.1365C64.9315 66.4728 65.1209 65.8262 65.4529 65.2507C65.7848 64.6752 66.2496 64.1874 66.8084 63.8281C67.0346 63.6417 67.3123 63.5287 67.6044 63.5044C67.8965 63.48 68.1891 63.5454 68.4431 63.6917C68.6971 63.8381 68.9003 64.0585 69.0257 64.3234C69.1511 64.5884 69.1926 64.8853 69.1448 65.1745V67.9753C69.1448 68.0879 69.1 68.196 69.0204 68.2756C68.9407 68.3553 68.8327 68.4001 68.72 68.4001C68.6073 68.4001 68.4993 68.3553 68.4196 68.2756C68.3399 68.196 68.2952 68.0879 68.2952 67.9753V65.1601C68.3514 65.0194 68.3548 64.8631 68.3046 64.7202C68.2544 64.5772 68.1542 64.4573 68.0224 64.3826C67.8906 64.3079 67.7361 64.2835 67.5877 64.3139C67.4393 64.3444 67.307 64.4275 67.2152 64.5481C66.7868 64.8342 66.4301 65.2153 66.1728 65.6617C65.9156 66.1082 65.7647 66.6079 65.732 67.1221V69.9193C65.7359 70.0313 65.6953 70.1404 65.6191 70.2227C65.5429 70.305 65.4372 70.3538 65.3252 70.3585Z" fill="#37474F"/>
<path d="M70.4519 66.1716C70.3524 66.1304 70.2441 66.115 70.1371 66.127C70.0301 66.139 69.9278 66.1778 69.8399 66.24L64.1807 69.5088C63.9325 69.6646 63.727 69.8799 63.5831 70.1352C63.3567 70.5028 63.2324 70.9241 63.2231 71.3556V76.2552C63.2104 76.3926 63.2291 76.5311 63.2777 76.6601C63.3264 76.7892 63.4037 76.9056 63.5039 77.0004C63.5345 77.0244 63.5685 77.0438 63.6047 77.058C63.7005 77.0937 63.8036 77.1058 63.9051 77.0933C64.0066 77.0807 64.1036 77.044 64.1879 76.986L69.8399 73.7136C70.1347 73.5032 70.376 73.2265 70.5442 72.9057C70.7124 72.5849 70.8029 72.229 70.8083 71.8668V66.96C70.8282 66.8085 70.8054 66.6543 70.7424 66.5151C70.6794 66.3758 70.5788 66.2568 70.4519 66.1716Z" fill="#F4891E"/>
<path d="M67.6797 71.28L68.2269 72.8496L66.3081 73.9548L66.7869 72.018L66.8553 71.7444C66.5313 71.7444 66.3081 71.5032 66.3081 71.064C66.3106 70.8852 66.3409 70.7078 66.3981 70.5384C66.5476 70.0705 66.8541 69.6687 67.2657 69.4008C67.7949 69.0948 68.2269 69.3432 68.2269 69.9552C68.2006 70.4462 68.0076 70.9135 67.6797 71.28Z" fill="#455A64"/>
<path d="M66.7727 72L66.8411 71.7264C66.5171 71.7264 66.2939 71.4852 66.2939 71.046C66.2964 70.8672 66.3268 70.6898 66.3839 70.5204L67.6799 71.28L68.2271 72.8496L66.7727 72Z" fill="#37474F"/>
<path d="M80.9998 88.4376L53.0638 104.555C51.9082 105.221 50.9722 104.512 50.9722 102.974V98.7444C50.9722 97.2036 51.9082 95.4144 53.0638 94.7484L80.9998 78.6312C82.1554 77.9652 83.0914 78.6708 83.0914 80.2116V84.4416C83.0734 85.9824 82.1374 87.768 80.9998 88.4376Z" fill="#F4891E"/>
<path d="M58.0859 94.3668H57.5459V98.8416H58.0859V94.3668Z" fill="#FAFAFA"/>
<path d="M59.8545 95.6455L55.9614 97.8829L56.2314 98.3527L60.1245 96.1153L59.8545 95.6455Z" fill="#FAFAFA"/>
<path d="M56.5781 95.5842L56.3081 96.0519L59.0485 97.6341L59.3185 97.1664L56.5781 95.5842Z" fill="#FAFAFA"/>
<path d="M59.3356 93.8479L56.5942 98.6179L57.064 98.8879L59.8054 94.1179L59.3356 93.8479Z" fill="#FAFAFA"/>
<path d="M67.291 89.3556H66.751V93.8304H67.291V89.3556Z" fill="#FAFAFA"/>
<path d="M68.8206 90.2483L64.9453 92.4857L65.2153 92.9534L69.0906 90.716L68.8206 90.2483Z" fill="#FAFAFA"/>
<path d="M65.7871 90.5715L65.5171 91.0392L68.2575 92.6214L68.5275 92.1537L65.7871 90.5715Z" fill="#FAFAFA"/>
<path d="M68.5212 88.7967L65.7798 93.5668L66.2496 93.8368L68.991 89.0667L68.5212 88.7967Z" fill="#FAFAFA"/>
<path d="M76.4961 84.3408H75.9561V88.8156H76.4961V84.3408Z" fill="#FAFAFA"/>
<path d="M78.3394 85.5766L74.4463 87.814L74.7163 88.2838L78.6094 86.0464L78.3394 85.5766Z" fill="#FAFAFA"/>
<path d="M74.9927 85.557L74.7227 86.0247L77.4631 87.6069L77.7331 87.1392L74.9927 85.557Z" fill="#FAFAFA"/>
<path d="M77.3635 84.065L74.6221 88.8132L75.0897 89.0832L77.8311 84.335L77.3635 84.065Z" fill="#FAFAFA"/>
<path d="M81.8098 94.2624C82.1698 94.2624 82.3534 94.8204 82.3534 95.3748V99.6048C82.3534 100.89 81.5578 102.434 80.6218 102.978L52.7038 119.095C52.5621 119.186 52.3999 119.239 52.2322 119.25C51.8722 119.25 51.6922 118.692 51.6922 118.138V113.908C51.6922 112.622 52.4842 111.078 53.4238 110.534L81.3598 94.4172C81.5002 94.3269 81.6612 94.2737 81.8278 94.2624M81.8278 93.5424C81.5346 93.5532 81.2493 93.64 80.9998 93.7944L53.0638 109.912C51.9082 110.578 50.9722 112.367 50.9722 113.908V118.138C50.9722 119.282 51.4906 119.97 52.2322 119.97C52.5266 119.96 52.8132 119.873 53.0638 119.718L80.9998 103.601C82.1554 102.935 83.0914 101.146 83.0914 99.6048V95.3748C83.0914 94.23 82.5694 93.5424 81.8278 93.5424Z" fill="#F4891E"/>
<path d="M54.3393 116.17C54.0961 116.309 53.8867 116.373 53.7112 116.36C53.5368 116.346 53.4023 116.261 53.3079 116.105C53.2135 115.949 53.1663 115.727 53.1663 115.439C53.1663 115.159 53.2135 114.885 53.3079 114.619C53.4023 114.353 53.5352 114.112 53.7066 113.895C53.879 113.677 54.0812 113.502 54.3131 113.369C54.4691 113.279 54.6144 113.224 54.7488 113.205C54.8843 113.184 55.0023 113.202 55.1029 113.259C55.2045 113.316 55.2835 113.415 55.34 113.556C55.3964 113.696 55.4246 113.883 55.4246 114.115V114.322L53.428 115.47V115.001L54.8073 114.208C54.8073 114.1 54.7868 114.015 54.7457 113.954C54.7047 113.894 54.6477 113.861 54.5748 113.856C54.503 113.848 54.4194 113.872 54.3239 113.927C54.2244 113.984 54.1361 114.062 54.0591 114.159C53.9832 114.255 53.9237 114.359 53.8806 114.473C53.8375 114.585 53.8154 114.696 53.8144 114.804V115.25C53.8144 115.385 53.8359 115.489 53.879 115.562C53.9232 115.635 53.9852 115.675 54.0653 115.682C54.1453 115.69 54.2403 115.662 54.3501 115.599C54.423 115.557 54.4897 115.507 54.5502 115.448C54.6108 115.39 54.6626 115.324 54.7057 115.252C54.7488 115.18 54.7816 115.103 54.8042 115.022L55.4108 114.719C55.38 114.905 55.3169 115.088 55.2214 115.268C55.127 115.447 55.0049 115.614 54.855 115.77C54.7062 115.924 54.5343 116.057 54.3393 116.17ZM56.5084 113.293V114.87L55.8526 115.247V112.519L56.4776 112.16V112.641L56.5053 112.625C56.5577 112.437 56.6454 112.261 56.7686 112.098C56.8917 111.933 57.041 111.801 57.2165 111.7C57.3807 111.606 57.5239 111.565 57.646 111.577C57.7682 111.59 57.8631 111.654 57.9308 111.769C57.9986 111.883 58.0324 112.045 58.0324 112.257V113.994L57.3766 114.371V112.769C57.3777 112.602 57.3407 112.493 57.2658 112.442C57.1909 112.391 57.0877 112.402 56.9564 112.478C56.8681 112.529 56.7901 112.595 56.7224 112.678C56.6557 112.76 56.6033 112.854 56.5653 112.96C56.5284 113.064 56.5094 113.175 56.5084 113.293ZM59.807 110.247V110.815L58.383 111.633V111.065L59.807 110.247ZM58.7063 110.226L59.3621 109.849V112.392C59.3621 112.461 59.3714 112.511 59.3898 112.539C59.4083 112.566 59.434 112.578 59.4668 112.575C59.5007 112.571 59.5397 112.556 59.5838 112.53C59.6146 112.513 59.6454 112.492 59.6762 112.468C59.707 112.444 59.7306 112.425 59.747 112.412L59.8501 112.915C59.8173 112.946 59.7711 112.986 59.7116 113.036C59.6521 113.087 59.5797 113.138 59.4945 113.191C59.3365 113.289 59.1979 113.344 59.0789 113.357C58.9608 113.369 58.869 113.335 58.8033 113.256C58.7376 113.177 58.7053 113.047 58.7063 112.868V110.226ZM61.2864 112.177C61.0432 112.317 60.8338 112.38 60.6583 112.367C60.4839 112.353 60.3494 112.268 60.255 112.113C60.1606 111.956 60.1134 111.734 60.1134 111.447C60.1134 111.166 60.1606 110.893 60.255 110.627C60.3494 110.36 60.4823 110.119 60.6537 109.902C60.8261 109.685 61.0283 109.509 61.2603 109.376C61.4163 109.286 61.5615 109.232 61.6959 109.213C61.8314 109.192 61.9494 109.209 62.05 109.267C62.1516 109.323 62.2306 109.422 62.2871 109.564C62.3435 109.704 62.3717 109.89 62.3717 110.122V110.33L60.3751 111.477V111.009L61.7544 110.216C61.7544 110.107 61.7339 110.022 61.6928 109.962C61.6518 109.901 61.5948 109.868 61.522 109.863C61.4501 109.856 61.3665 109.88 61.271 109.934C61.1715 109.992 61.0832 110.069 61.0063 110.166C60.9303 110.262 60.8708 110.367 60.8277 110.48C60.7846 110.593 60.7625 110.703 60.7615 110.811V111.257C60.7615 111.392 60.783 111.496 60.8261 111.57C60.8703 111.643 60.9324 111.683 61.0124 111.69C61.0925 111.697 61.1874 111.669 61.2972 111.606C61.3701 111.564 61.4368 111.514 61.4973 111.456C61.5579 111.397 61.6097 111.332 61.6528 111.26C61.6959 111.188 61.7288 111.111 61.7513 111.029L62.3579 110.727C62.3271 110.912 62.264 111.095 62.1685 111.276C62.0741 111.454 61.952 111.622 61.8021 111.778C61.6533 111.932 61.4814 112.065 61.2864 112.177ZM62.7997 111.254V108.527L63.4355 108.161V108.637L63.4601 108.623C63.5032 108.429 63.5756 108.26 63.6772 108.115C63.7788 107.969 63.8958 107.858 64.0282 107.782C64.061 107.763 64.0964 107.745 64.1344 107.728C64.1724 107.711 64.2057 107.698 64.2345 107.69V108.361C64.2037 108.368 64.1611 108.383 64.1067 108.406C64.0523 108.429 64.0025 108.453 63.9574 108.479C63.8609 108.535 63.7747 108.609 63.6987 108.701C63.6238 108.791 63.5643 108.892 63.5202 109.002C63.4771 109.112 63.4555 109.223 63.4555 109.334V110.877L62.7997 111.254Z" fill="#F4891E"/>
<path d="M122.9 46.1916C122.917 46.4764 123.001 46.7533 123.146 46.9993C123.29 47.2452 123.491 47.4533 123.732 47.6064C124.193 47.8656 124.564 47.6532 124.564 47.1348C124.547 46.8499 124.463 46.5731 124.318 46.3271C124.174 46.0811 123.973 45.873 123.732 45.72C123.275 45.4608 122.9 45.6696 122.9 46.1916Z" fill="#455A64"/>
<path d="M111.751 49.5432C111.019 49.5188 110.306 49.3055 109.681 48.924L107.042 47.43C107.02 47.4192 107.001 47.404 106.985 47.3854C106.969 47.3668 106.957 47.3451 106.95 47.3217C106.943 47.2983 106.94 47.2737 106.943 47.2494C106.946 47.2251 106.953 47.2015 106.965 47.1802C106.977 47.1589 106.993 47.1403 107.013 47.1254C107.032 47.1106 107.054 47.0999 107.078 47.0939C107.102 47.088 107.127 47.087 107.151 47.0909C107.175 47.0948 107.198 47.1036 107.219 47.1168L109.857 48.6108C110.999 49.2552 112.053 49.3596 112.835 48.906C113.616 48.4524 114.023 47.52 114.023 46.2564C114.023 44.8632 114.509 43.812 115.387 43.2972C116.265 42.7824 117.471 42.8796 118.724 43.5888L122.99 46.0044C123.031 46.0285 123.061 46.0674 123.074 46.113C123.086 46.1587 123.081 46.2074 123.059 46.2492C123.035 46.2907 122.996 46.3212 122.95 46.334C122.905 46.3468 122.855 46.3409 122.814 46.3176L118.548 43.92C117.41 43.2756 116.352 43.1712 115.571 43.6284C114.789 44.0856 114.383 45.0144 114.383 46.2744C114.383 47.6712 113.897 48.7224 113.018 49.2336C112.631 49.4475 112.193 49.5544 111.751 49.5432Z" fill="#455A64"/>
<path d="M105.952 46.6235C105.964 46.8538 106.032 47.0776 106.149 47.2762C106.266 47.4748 106.429 47.6423 106.625 47.7647C106.985 47.9771 107.298 47.8043 107.298 47.3831C107.285 47.1529 107.218 46.9291 107.101 46.7305C106.983 46.5319 106.82 46.3644 106.625 46.2419C106.254 46.0295 105.952 46.2023 105.952 46.6235Z" fill="#455A64"/>
<path d="M148.532 42.7968L130.892 32.8104C130.707 32.6744 130.483 32.6011 130.253 32.6011C130.023 32.6011 129.8 32.6744 129.614 32.8104L128.088 33.8616L129.128 35.1468V53.7336C129.128 55.0332 129.92 56.5416 130.892 57.1068L148.089 66.8268L148.169 68.2092L149.774 67.1076C149.959 66.9351 150.102 66.7223 150.192 66.4857C150.282 66.2492 150.317 65.9951 150.293 65.7432V46.17C150.3 44.8704 149.508 43.362 148.532 42.7968Z" fill="#F4891E"/>
<path d="M148.532 42.7968L130.892 32.8104C130.707 32.6744 130.483 32.6011 130.253 32.6011C130.023 32.6011 129.8 32.6744 129.614 32.8104L128.088 33.8616L129.128 35.1468V53.7336C129.128 55.0332 129.92 56.5416 130.892 57.1068L148.089 66.8268L148.169 68.2092L149.774 67.1076C149.959 66.9351 150.102 66.7223 150.192 66.4857C150.282 66.2492 150.317 65.9951 150.293 65.7432V46.17C150.3 44.8704 149.508 43.362 148.532 42.7968Z" fill="black" opacity="0.3"/>
<path d="M147.035 68.1228L129.395 58.1364C128.419 57.5748 127.631 56.0628 127.631 54.7632V35.1792C127.631 33.876 128.419 33.2784 129.395 33.8436L147.035 43.83C148.01 44.3916 148.799 45.9036 148.799 47.2032V66.7908C148.799 68.0904 148.01 68.688 147.035 68.1228Z" fill="#F4891E"/>
<path d="M143.331 51.174C143.291 51.1746 143.252 51.1618 143.22 51.1377C143.188 51.1136 143.165 51.0795 143.154 51.0408C142.778 49.6519 142.197 48.3269 141.43 47.1096C141.404 47.0695 141.395 47.0208 141.405 46.9743C141.416 46.9277 141.444 46.8871 141.484 46.8612C141.504 46.8482 141.526 46.8393 141.55 46.8351C141.573 46.8309 141.597 46.8316 141.62 46.837C141.644 46.8423 141.665 46.8524 141.685 46.8664C141.704 46.8805 141.72 46.8983 141.732 46.9188C142.52 48.1659 143.117 49.5237 143.503 50.9472C143.515 50.9935 143.508 51.0423 143.485 51.0838C143.461 51.1252 143.423 51.1562 143.377 51.1704L143.331 51.174Z" fill="white"/>
<path d="M143.734 54.8352C143.685 54.8315 143.641 54.8091 143.609 54.7727C143.577 54.7363 143.561 54.6889 143.564 54.6408C143.564 54.45 143.586 54.2484 143.586 54.0432C143.584 53.4277 143.53 52.8135 143.424 52.2072C143.416 52.1595 143.427 52.1105 143.455 52.071C143.483 52.0315 143.526 52.0047 143.573 51.9966C143.621 51.9885 143.67 51.9997 143.71 52.0277C143.749 52.0557 143.776 52.0983 143.784 52.146C143.894 52.7725 143.951 53.4071 143.953 54.0432C143.953 54.2556 143.953 54.4644 143.932 54.666C143.93 54.6901 143.923 54.7137 143.912 54.7353C143.901 54.7569 143.886 54.7761 143.868 54.7918C143.849 54.8075 143.828 54.8194 143.805 54.8269C143.782 54.8343 143.758 54.8372 143.734 54.8352Z" fill="white"/>
<path d="M132.721 48.8592C132.677 48.8594 132.634 48.8428 132.601 48.8127C132.568 48.7827 132.548 48.7415 132.545 48.6972C132.516 48.384 132.501 48.0708 132.501 47.7684C132.501 46.0224 132.973 44.5824 133.83 43.7076C133.846 43.6908 133.866 43.6775 133.888 43.6684C133.909 43.6593 133.932 43.6547 133.956 43.6547C133.979 43.6547 134.003 43.6593 134.024 43.6684C134.046 43.6775 134.065 43.6908 134.082 43.7076C134.099 43.7243 134.112 43.7442 134.121 43.7662C134.13 43.7881 134.135 43.8116 134.135 43.8354C134.135 43.8592 134.13 43.8827 134.121 43.9046C134.112 43.9266 134.099 43.9465 134.082 43.9632C133.293 44.7696 132.858 46.1232 132.858 47.772C132.858 48.0636 132.858 48.366 132.897 48.6684C132.9 48.6919 132.898 48.7156 132.891 48.7382C132.884 48.7607 132.873 48.7817 132.858 48.7998C132.842 48.818 132.824 48.8329 132.803 48.8437C132.782 48.8545 132.759 48.861 132.735 48.8628L132.721 48.8592Z" fill="white"/>
<path d="M140.685 45.9468C140.658 45.9471 140.631 45.9414 140.607 45.9302C140.583 45.919 140.561 45.9025 140.544 45.882C139.877 45.0326 139.058 44.3148 138.129 43.7652C136.933 43.0884 135.81 42.9588 134.889 43.4052C134.846 43.4249 134.797 43.4269 134.752 43.4107C134.708 43.3945 134.671 43.3615 134.651 43.3188C134.641 43.2973 134.635 43.2739 134.634 43.2501C134.632 43.2263 134.636 43.2025 134.644 43.1801C134.652 43.1577 134.664 43.137 134.68 43.1194C134.696 43.1018 134.716 43.0876 134.737 43.0776C135.774 42.5988 137.009 42.7176 138.312 43.47C139.281 44.043 140.135 44.7899 140.832 45.6732C140.862 45.71 140.876 45.7571 140.871 45.8043C140.867 45.8515 140.844 45.8949 140.807 45.9252C140.77 45.9467 140.727 45.9543 140.685 45.9468Z" fill="white"/>
<path d="M133.963 48.9996C133.917 48.9996 133.872 48.9817 133.838 48.9494C133.805 48.9172 133.785 48.8733 133.783 48.8268C133.783 48.7152 133.783 48.6036 133.783 48.492C133.783 47.214 134.096 46.17 134.69 45.4752C134.705 45.4569 134.724 45.4419 134.745 45.4309C134.765 45.4199 134.788 45.4132 134.812 45.4112C134.835 45.4092 134.859 45.4119 134.881 45.4192C134.904 45.4264 134.925 45.4382 134.942 45.4536C134.979 45.4849 135.001 45.5292 135.005 45.577C135.009 45.6248 134.994 45.6722 134.964 45.7092C134.428 46.3392 134.143 47.3004 134.143 48.492C134.143 48.5964 134.143 48.7044 134.143 48.8088C134.144 48.8324 134.14 48.856 134.132 48.8782C134.124 48.9004 134.112 48.9208 134.096 48.9382C134.08 48.9556 134.06 48.9697 134.039 48.9796C134.017 48.9895 133.994 48.9951 133.97 48.996L133.963 48.9996Z" fill="white"/>
<path d="M135.36 45.2916C135.32 45.292 135.282 45.2793 135.25 45.2556C135.218 45.2318 135.196 45.1982 135.185 45.1601C135.174 45.122 135.176 45.0814 135.191 45.0446C135.206 45.0079 135.232 44.977 135.266 44.9568C135.728 44.6826 136.268 44.571 136.8 44.64C136.847 44.6446 136.891 44.6676 136.921 44.704C136.951 44.7404 136.966 44.7872 136.962 44.8344C136.957 44.8819 136.933 44.9253 136.896 44.9556C136.859 44.9858 136.812 45.0005 136.764 44.9964C136.31 44.9424 135.852 45.0412 135.461 45.2772C135.429 45.2906 135.394 45.2955 135.36 45.2916Z" fill="white"/>
<path d="M143.331 57.1499C143.295 57.15 143.259 57.1395 143.229 57.1196C143.199 57.0998 143.176 57.0715 143.161 57.0383L142.953 56.5163C142.534 55.5069 142.313 54.4266 142.301 53.3339C142.301 50.2811 140.429 46.7495 138.129 45.4463C138.108 45.4348 138.09 45.4192 138.076 45.4005C138.061 45.3819 138.05 45.3605 138.044 45.3377C138.038 45.3148 138.037 45.291 138.04 45.2676C138.044 45.2442 138.052 45.2218 138.064 45.2015C138.075 45.1806 138.09 45.1622 138.109 45.1474C138.128 45.1326 138.149 45.1217 138.172 45.1153C138.195 45.1089 138.218 45.1072 138.242 45.1102C138.266 45.1133 138.288 45.1211 138.309 45.1331C140.706 46.4939 142.661 50.1731 142.661 53.3195C142.67 54.3704 142.883 55.4096 143.287 56.3795L143.496 56.9015C143.506 56.9232 143.511 56.9466 143.511 56.9702C143.511 56.9939 143.506 57.0173 143.497 57.0391C143.488 57.0609 143.475 57.0807 143.458 57.0973C143.441 57.1139 143.421 57.1269 143.399 57.1355C143.378 57.1452 143.354 57.1501 143.331 57.1499Z" fill="white"/>
<path d="M135.065 55.08C135.028 55.08 134.992 55.0686 134.961 55.0473C134.931 55.0261 134.908 54.996 134.896 54.9612C134.314 53.2601 133.938 51.4956 133.776 49.7052C133.774 49.6813 133.777 49.6572 133.784 49.6344C133.792 49.6115 133.804 49.5904 133.82 49.5723C133.835 49.5542 133.855 49.5394 133.876 49.5289C133.898 49.5183 133.921 49.5122 133.945 49.5108C133.992 49.5097 134.038 49.5265 134.074 49.5579C134.109 49.5893 134.131 49.6329 134.136 49.68C134.289 51.4364 134.652 53.1683 135.216 54.8388C135.225 54.861 135.228 54.8847 135.228 54.9084C135.227 54.9322 135.221 54.9555 135.211 54.977C135.201 54.9985 135.187 55.0178 135.169 55.0336C135.151 55.0495 135.13 55.0616 135.108 55.0692C135.094 55.0747 135.08 55.0783 135.065 55.08Z" fill="white"/>
<path d="M142.272 58.3632C142.235 58.364 142.199 58.3533 142.169 58.3327C142.139 58.312 142.116 58.2825 142.103 58.248L141.62 56.952C141.134 55.6871 140.872 54.347 140.846 52.992V51.5772C140.846 49.896 139.64 47.8476 138.157 47.0088C137.466 46.6164 136.825 46.548 136.357 46.8216C135.889 47.0952 135.637 47.6604 135.637 48.4272V49.68C135.677 51.7152 136.084 53.7264 136.84 55.6164L137.434 57.1644C137.442 57.1866 137.447 57.2103 137.446 57.2342C137.445 57.258 137.44 57.2815 137.43 57.3033C137.421 57.325 137.407 57.3447 137.389 57.361C137.372 57.3773 137.352 57.3901 137.329 57.3984C137.285 57.4148 137.236 57.4131 137.193 57.3935C137.15 57.374 137.116 57.3382 137.099 57.294L136.505 55.746C135.738 53.8137 135.325 51.7588 135.288 49.68V48.4308C135.288 47.5308 135.601 46.8504 136.177 46.5156C136.753 46.1808 137.527 46.242 138.337 46.6992C139.918 47.5956 141.217 49.7844 141.217 51.5808V52.9956C141.242 54.3078 141.497 55.6054 141.97 56.8296L142.448 58.122C142.457 58.144 142.461 58.1674 142.461 58.191C142.46 58.2146 142.455 58.2378 142.445 58.2593C142.435 58.2808 142.421 58.3001 142.404 58.3161C142.387 58.3321 142.366 58.3444 142.344 58.3524L142.272 58.3632Z" fill="white"/>
<path d="M140.684 58.878C140.646 58.8782 140.608 58.8661 140.577 58.8434C140.546 58.8208 140.523 58.7887 140.512 58.752L140.26 57.9024C139.801 56.4112 139.558 54.8618 139.54 53.3016V51.12C139.512 50.6258 139.367 50.1454 139.116 49.7185C138.866 49.2915 138.517 48.9304 138.1 48.6648C137.969 48.5694 137.816 48.5098 137.656 48.4922C137.495 48.4745 137.333 48.4992 137.185 48.564C137.059 48.6558 136.959 48.7794 136.896 48.9223C136.832 49.0652 136.808 49.2223 136.825 49.3776C136.825 51.8112 137.567 54.6156 138.91 57.276L139.417 58.2804C139.428 58.3017 139.434 58.3248 139.436 58.3486C139.438 58.3723 139.435 58.3961 139.427 58.4187C139.42 58.4412 139.408 58.4621 139.392 58.4801C139.376 58.498 139.357 58.5128 139.336 58.5234C139.315 58.534 139.292 58.5404 139.268 58.5421C139.244 58.5438 139.22 58.5408 139.198 58.5332C139.175 58.5257 139.154 58.5138 139.137 58.4982C139.119 58.4827 139.104 58.4637 139.093 58.4424L138.589 57.438C137.218 54.7272 136.465 51.8652 136.465 49.3776C136.445 49.1593 136.484 48.9395 136.577 48.7413C136.671 48.5431 136.816 48.3737 136.998 48.2508C137.2 48.1535 137.424 48.1115 137.647 48.1292C137.87 48.1469 138.085 48.2237 138.269 48.3516C138.741 48.6506 139.135 49.0575 139.418 49.5389C139.702 50.0203 139.867 50.5623 139.9 51.12V53.3088C139.916 54.8348 140.152 56.3504 140.602 57.8088L140.854 58.6548C140.861 58.6775 140.863 58.7014 140.861 58.725C140.859 58.7487 140.851 58.7716 140.84 58.7925C140.829 58.8133 140.813 58.8317 140.794 58.8464C140.776 58.8611 140.754 58.8718 140.731 58.878C140.716 58.881 140.7 58.881 140.684 58.878Z" fill="white"/>
<path d="M138.665 55.0799C138.624 55.0795 138.585 55.0654 138.553 55.04C138.521 55.0146 138.498 54.9792 138.489 54.9395L138.323 54.1691C138.165 53.4284 138.085 52.673 138.085 51.9155V49.8887C138.085 49.841 138.104 49.7952 138.138 49.7615C138.172 49.7277 138.218 49.7087 138.265 49.7087C138.313 49.7087 138.359 49.7277 138.393 49.7615C138.426 49.7952 138.445 49.841 138.445 49.8887V51.9155C138.448 52.6416 138.525 53.3654 138.676 54.0755L138.841 54.8459C138.847 54.8689 138.847 54.8927 138.843 54.9159C138.839 54.939 138.831 54.9612 138.818 54.981C138.805 55.0008 138.789 55.0178 138.769 55.0311C138.75 55.0444 138.728 55.0537 138.705 55.0583L138.665 55.0799Z" fill="white"/>
<path d="M133.114 51.1739C133.069 51.1734 133.026 51.1566 132.993 51.1268C132.96 51.097 132.939 51.0562 132.934 51.0119L132.829 49.9607C132.825 49.9131 132.84 49.8659 132.87 49.8289C132.9 49.7919 132.944 49.7682 132.991 49.7627C133.015 49.7597 133.039 49.7616 133.062 49.7682C133.085 49.7748 133.107 49.7861 133.125 49.8012C133.144 49.8164 133.159 49.8351 133.17 49.8564C133.181 49.8776 133.188 49.9009 133.189 49.9247L133.294 50.9759C133.296 50.9996 133.294 51.0235 133.287 51.0463C133.28 51.0691 133.269 51.0903 133.254 51.1087C133.239 51.1271 133.22 51.1424 133.199 51.1536C133.178 51.1648 133.155 51.1717 133.132 51.1739H133.114Z" fill="white"/>
<path d="M148.532 76.1544L130.892 66.1644C130.707 66.0284 130.483 65.9551 130.253 65.9551C130.023 65.9551 129.8 66.0284 129.614 66.1644L128.088 67.2156L129.128 68.5008V87.0876C129.128 88.3872 129.92 89.8956 130.892 90.4608L148.089 100.181L148.169 101.563L149.774 100.465C149.959 100.292 150.102 100.079 150.192 99.8414C150.282 99.6043 150.317 99.3497 150.293 99.0972V79.5132C150.3 78.2244 149.508 76.716 148.532 76.1544Z" fill="#F4891E"/>
<path d="M148.532 76.1544L130.892 66.1644C130.707 66.0284 130.483 65.9551 130.253 65.9551C130.023 65.9551 129.8 66.0284 129.614 66.1644L128.088 67.2156L129.128 68.5008V87.0876C129.128 88.3872 129.92 89.8956 130.892 90.4608L148.089 100.181L148.169 101.563L149.774 100.465C149.959 100.292 150.102 100.079 150.192 99.8414C150.282 99.6043 150.317 99.3497 150.293 99.0972V79.5132C150.3 78.2244 149.508 76.716 148.532 76.1544Z" fill="black" opacity="0.3"/>
<path d="M147.035 101.477L129.395 91.4904C128.419 90.9288 127.631 89.4204 127.631 88.1172V68.5332C127.631 67.2336 128.419 66.636 129.395 67.1976L147.035 77.184C148.01 77.7492 148.799 79.2576 148.799 80.5572V100.145C148.799 101.444 148.01 102.042 147.035 101.477Z" fill="#F4891E"/>
<path d="M131.562 73.998C131.514 73.998 131.468 73.9791 131.435 73.9453C131.401 73.9115 131.382 73.8658 131.382 73.818V72.6048C131.381 72.4843 131.412 72.3657 131.472 72.2613C131.532 72.1569 131.619 72.0704 131.724 72.0108C131.833 71.9454 131.957 71.9109 132.084 71.9109C132.211 71.9109 132.335 71.9454 132.444 72.0108L133.715 72.7308C133.757 72.7542 133.788 72.7933 133.801 72.8396C133.814 72.8858 133.808 72.9354 133.785 72.9774C133.761 73.0194 133.722 73.0504 133.676 73.0636C133.63 73.0768 133.58 73.071 133.538 73.0476L132.264 72.3276C132.209 72.296 132.147 72.2794 132.084 72.2794C132.021 72.2794 131.959 72.296 131.904 72.3276C131.854 72.3555 131.813 72.3963 131.784 72.4457C131.756 72.4952 131.741 72.5514 131.742 72.6084V73.8216C131.741 73.8687 131.722 73.9136 131.688 73.9466C131.654 73.9796 131.609 73.998 131.562 73.998Z" fill="white"/>
<path d="M133.607 90.6912C133.577 90.691 133.547 90.6836 133.52 90.6696L132.332 89.9964C132.048 89.8329 131.813 89.5974 131.649 89.3135C131.485 89.0297 131.399 88.7077 131.4 88.38V87.2604C131.4 87.2127 131.419 87.1669 131.453 87.1332C131.486 87.0994 131.532 87.0804 131.58 87.0804C131.628 87.0804 131.673 87.0994 131.707 87.1332C131.741 87.1669 131.76 87.2127 131.76 87.2604V88.38C131.761 88.6457 131.833 88.9063 131.967 89.1352C132.102 89.3642 132.295 89.5533 132.527 89.6832L133.715 90.3564C133.748 90.3765 133.775 90.407 133.79 90.4434C133.804 90.4798 133.807 90.52 133.797 90.558C133.786 90.5959 133.764 90.6295 133.733 90.6535C133.702 90.6776 133.664 90.6908 133.625 90.6912H133.607Z" fill="white"/>
<path d="M144.36 96.7068C144.234 96.7092 144.109 96.6769 144 96.6132L142.729 95.8932C142.688 95.8697 142.657 95.8308 142.644 95.7849C142.632 95.739 142.637 95.6899 142.661 95.6484C142.685 95.6076 142.724 95.5777 142.769 95.565C142.815 95.5522 142.864 95.5576 142.906 95.58L144.18 96.3C144.235 96.3316 144.297 96.3482 144.36 96.3482C144.423 96.3482 144.485 96.3316 144.54 96.3C144.59 96.2721 144.631 96.2313 144.66 96.1819C144.688 96.1324 144.703 96.0762 144.702 96.0192V94.806C144.702 94.7582 144.721 94.7125 144.755 94.6787C144.788 94.6449 144.834 94.626 144.882 94.626C144.93 94.626 144.975 94.6449 145.009 94.6787C145.043 94.7125 145.062 94.7582 145.062 94.806V96.0192C145.063 96.1391 145.031 96.2571 144.971 96.3609C144.911 96.4647 144.824 96.5506 144.72 96.6096C144.611 96.6742 144.487 96.7078 144.36 96.7068Z" fill="white"/>
<path d="M144.875 81.5401C144.827 81.5401 144.781 81.5211 144.748 81.4873C144.714 81.4536 144.695 81.4078 144.695 81.3601V80.2405C144.694 79.9753 144.622 79.7151 144.488 79.4867C144.353 79.2583 144.16 79.0699 143.928 78.9409L142.74 78.2677C142.698 78.2435 142.668 78.204 142.655 78.1575C142.642 78.111 142.648 78.0614 142.672 78.0193C142.683 77.9987 142.699 77.9806 142.718 77.9661C142.736 77.9517 142.758 77.9411 142.78 77.9351C142.803 77.929 142.827 77.9276 142.85 77.931C142.874 77.9343 142.896 77.9423 142.917 77.9545L144.105 78.6277C144.391 78.7886 144.63 79.0226 144.797 79.3059C144.964 79.5892 145.053 79.9116 145.055 80.2405V81.3601C145.055 81.4078 145.036 81.4536 145.002 81.4873C144.968 81.5211 144.923 81.5401 144.875 81.5401Z" fill="white"/>
<path d="M133.157 80.0532C133.197 82.0974 133.49 84.1288 134.028 86.1012C135.396 91.2636 140.792 94.4352 142.276 90.9396C142.972 89.2199 143.314 87.3769 143.28 85.5216C143.28 82.3536 141.012 78.5016 138.218 76.9176C135.36 75.3012 133.117 76.8024 133.157 80.0532Z" fill="white"/>
<path d="M138.038 82.9369V86.3281L136.566 85.2265L138.038 82.9369Z" fill="#E0E0E0"/>
<path d="M135.299 80.9101C135.308 81.0763 135.357 81.2379 135.441 81.3818C135.525 81.5256 135.641 81.6477 135.781 81.7381C136.051 81.8893 136.267 81.7669 136.267 81.4609C136.258 81.2946 136.209 81.1331 136.124 80.9897C136.04 80.8463 135.922 80.7252 135.781 80.6365C135.515 80.4853 135.299 80.6077 135.299 80.9101Z" fill="#E0E0E0"/>
<path d="M139.806 83.4949C139.816 83.6609 139.866 83.8221 139.95 83.9654C140.035 84.1086 140.152 84.2299 140.292 84.3193C140.562 84.4705 140.778 84.3481 140.778 84.0457C140.769 83.879 140.72 83.7169 140.635 83.5729C140.551 83.429 140.433 83.3072 140.292 83.2177C140.04 83.0665 139.806 83.1889 139.806 83.4949Z" fill="#E0E0E0"/>
<path d="M137.552 87.9877L139.197 87.7104C139.197 87.7104 138.848 89.4673 137.552 87.9877Z" fill="#E0E0E0"/>
<path d="M122.9 77.6592C122.918 77.9434 123.002 78.2196 123.146 78.4649C123.291 78.7102 123.492 78.9177 123.732 79.0704C124.193 79.3332 124.564 79.1208 124.564 78.6024C124.547 78.3176 124.463 78.0407 124.318 77.7947C124.174 77.5487 123.973 77.3406 123.732 77.1876C123.275 76.9248 122.9 77.1372 122.9 77.6592Z" fill="#455A64"/>
<path d="M122.933 78.0517C122.902 78.0514 122.871 78.0441 122.843 78.0301L118.581 75.6001C116.086 74.1889 114.055 70.7365 114.055 67.9105C114.055 65.1961 112.108 61.8877 109.714 60.5305L107.043 59.0185C107.001 58.995 106.971 58.9561 106.958 58.9102C106.945 58.8643 106.951 58.8152 106.974 58.7737C106.985 58.7528 107.001 58.7344 107.019 58.7196C107.038 58.7047 107.059 58.6938 107.082 58.6874C107.105 58.681 107.129 58.6793 107.152 58.6824C107.176 58.6855 107.199 58.6933 107.219 58.7053L109.89 60.2173C112.385 61.6321 114.415 65.0809 114.415 67.9105C114.415 70.6213 116.363 73.9297 118.757 75.2869L123.023 77.7061C123.064 77.7295 123.095 77.7685 123.108 77.8144C123.121 77.8602 123.115 77.9093 123.091 77.9509C123.076 77.9802 123.054 78.0049 123.026 78.0226C122.998 78.0403 122.966 78.0503 122.933 78.0517Z" fill="#455A64"/>
<path d="M105.952 58.1544C105.965 58.3849 106.034 58.6087 106.151 58.8077C106.268 59.0067 106.43 59.1751 106.625 59.2992C106.985 59.508 107.298 59.3388 107.298 58.9176C107.284 58.6872 107.216 58.4633 107.099 58.2644C106.982 58.0654 106.819 57.8969 106.625 57.7728C106.254 57.564 105.952 57.7332 105.952 58.1544Z" fill="#455A64"/>
<path d="M111.017 91.152C111.017 91.152 113.641 90.9756 115.128 94.6224C116.053 96.8904 117.18 100.382 117.9 102.722C118.119 103.429 118.124 104.184 117.915 104.894C117.706 105.603 117.293 106.236 116.726 106.711L112.151 110.552L110.52 107.575C111.471 106.306 112.517 105.111 113.648 104L110.52 94.6224L111.017 91.152Z" fill="#FFA8A7"/>
<path d="M112.226 102.29C112.226 102.29 116.395 102.841 117.435 99.6265C117.435 99.6265 115.635 94.9213 114.829 93.3589C114.023 91.7965 112.338 90.6589 111.017 91.1521C109.695 91.6453 112.226 102.29 112.226 102.29Z" fill="#F4891E"/>
<path d="M112.226 102.29C112.226 102.29 116.395 102.841 117.435 99.6265C117.435 99.6265 115.635 94.9213 114.829 93.3589C114.023 91.7965 112.338 90.6589 111.017 91.1521C109.695 91.6453 112.226 102.29 112.226 102.29Z" fill="white" opacity="0.4"/>
<path d="M109.44 144.504C109.44 144.504 107.46 142.808 106.689 142.729C105.919 142.65 104.587 143.968 105.714 146.254C106.027 146.891 107.301 147.578 108.097 148.799C108.893 150.019 109.605 150.937 110.826 150.768C112.046 150.599 112.205 149.915 112.125 149.119C112.022 148.391 111.877 147.67 111.69 146.959L109.44 144.504Z" fill="#37474F"/>
<path d="M110.88 150.404C109.623 150.577 108.885 149.63 108.064 148.374C107.244 147.118 105.933 146.405 105.609 145.75C105.48 145.487 105.374 145.214 105.292 144.932C105.352 145.393 105.491 145.84 105.703 146.254C106.016 146.891 107.29 147.578 108.086 148.799C108.882 150.019 109.594 150.937 110.815 150.768C111.751 150.642 112.06 150.207 112.118 149.652C111.96 150.027 111.618 150.307 110.88 150.404Z" fill="#263238"/>
<path d="M108.389 146.686C108.357 146.686 108.326 146.677 108.299 146.66C108.276 146.649 108.257 146.633 108.241 146.613C108.225 146.594 108.212 146.571 108.205 146.547C108.198 146.523 108.195 146.498 108.198 146.473C108.2 146.448 108.208 146.423 108.22 146.401C108.623 145.687 109.292 145.162 110.081 144.94C110.129 144.932 110.179 144.943 110.219 144.971C110.26 144.999 110.289 145.041 110.3 145.088C110.31 145.136 110.303 145.187 110.278 145.229C110.254 145.272 110.214 145.303 110.167 145.318C109.488 145.516 108.912 145.968 108.558 146.581C108.542 146.612 108.517 146.638 108.488 146.657C108.458 146.675 108.424 146.685 108.389 146.686Z" fill="#EBEBEB"/>
<path d="M107.64 146.002C107.608 146.001 107.578 145.994 107.55 145.98C107.527 145.968 107.508 145.952 107.492 145.933C107.476 145.913 107.463 145.891 107.456 145.867C107.449 145.843 107.446 145.817 107.449 145.792C107.451 145.767 107.459 145.743 107.471 145.721C107.67 145.366 107.937 145.055 108.257 144.804C108.577 144.553 108.944 144.368 109.335 144.259C109.361 144.246 109.39 144.238 109.419 144.238C109.448 144.237 109.477 144.243 109.503 144.255C109.53 144.267 109.553 144.286 109.571 144.308C109.59 144.331 109.603 144.357 109.609 144.386C109.616 144.414 109.616 144.444 109.609 144.472C109.602 144.5 109.589 144.527 109.571 144.549C109.553 144.572 109.529 144.59 109.503 144.602C109.476 144.614 109.447 144.62 109.418 144.619C108.739 144.82 108.163 145.273 107.809 145.886C107.795 145.92 107.771 145.949 107.741 145.969C107.711 145.99 107.676 146.001 107.64 146.002Z" fill="#EBEBEB"/>
<path d="M106.801 145.321C106.77 145.321 106.739 145.314 106.711 145.3C106.666 145.275 106.632 145.234 106.617 145.185C106.602 145.135 106.608 145.082 106.632 145.037C107.036 144.323 107.707 143.799 108.497 143.579C108.521 143.573 108.547 143.572 108.572 143.576C108.597 143.58 108.621 143.589 108.642 143.603C108.663 143.616 108.682 143.634 108.697 143.654C108.711 143.675 108.722 143.698 108.727 143.723C108.738 143.773 108.728 143.825 108.701 143.868C108.673 143.912 108.629 143.942 108.579 143.953C107.9 144.154 107.324 144.607 106.97 145.22C106.954 145.251 106.93 145.277 106.9 145.295C106.87 145.313 106.836 145.322 106.801 145.321Z" fill="#EBEBEB"/>
<path d="M98.9027 150.066C98.9027 150.066 96.2495 149.206 95.4575 149.443C94.6655 149.681 93.8915 151.531 95.9435 153.328C96.5123 153.824 98.0531 153.983 99.3419 154.861C100.631 155.74 101.711 156.348 102.848 155.682C103.986 155.016 103.892 154.242 103.687 153.421C103.432 152.363 103.223 151.592 103.223 151.592L98.9027 150.066Z" fill="#37474F"/>
<path d="M102.762 155.297C101.592 155.984 100.472 155.354 99.1617 154.447C97.8513 153.54 96.2457 153.367 95.6589 152.867C95.4215 152.66 95.2034 152.433 95.0073 152.186C95.2559 152.619 95.5774 153.005 95.9577 153.328C96.5265 153.824 98.0673 153.983 99.3561 154.861C100.645 155.74 101.725 156.348 102.863 155.682C103.73 155.174 103.86 154.602 103.691 154.044C103.68 154.48 103.435 154.901 102.762 155.297Z" fill="#263238"/>
<path d="M98.2796 152.518H98.2616C98.2106 152.512 98.1639 152.487 98.1315 152.447C98.0991 152.407 98.0838 152.356 98.0888 152.305C98.1932 151.439 98.6373 150.649 99.3236 150.109C99.344 150.095 99.367 150.084 99.3914 150.078C99.4158 150.073 99.441 150.072 99.4658 150.076C99.4905 150.08 99.5142 150.089 99.5355 150.102C99.5569 150.115 99.5754 150.132 99.59 150.152C99.6198 150.194 99.632 150.246 99.6239 150.296C99.6158 150.347 99.5881 150.392 99.5468 150.422C98.9535 150.901 98.5668 151.589 98.4668 152.345C98.4624 152.392 98.4408 152.435 98.4063 152.467C98.3717 152.499 98.3266 152.517 98.2796 152.518Z" fill="#EBEBEB"/>
<path d="M99.3599 152.874C99.3096 152.869 99.2634 152.844 99.2312 152.805C99.1989 152.766 99.1831 152.716 99.1871 152.665C99.2929 151.798 99.7366 151.008 100.422 150.466C100.464 150.436 100.516 150.425 100.567 150.433C100.617 150.442 100.662 150.471 100.692 150.512C100.706 150.533 100.717 150.556 100.722 150.581C100.728 150.605 100.728 150.631 100.724 150.655C100.72 150.68 100.71 150.704 100.697 150.725C100.683 150.746 100.666 150.764 100.645 150.779C100.05 151.256 99.6633 151.945 99.5652 152.701C99.5606 152.751 99.5365 152.797 99.498 152.83C99.4596 152.862 99.41 152.878 99.3599 152.874Z" fill="#EBEBEB"/>
<path d="M97.2573 152.147H97.2393C97.189 152.141 97.1428 152.117 97.1106 152.078C97.0783 152.039 97.0625 151.989 97.0665 151.938C97.1704 151.07 97.6145 150.279 98.3013 149.738C98.3429 149.709 98.3945 149.697 98.4448 149.705C98.4951 149.714 98.5399 149.742 98.5695 149.783C98.5991 149.825 98.611 149.877 98.6026 149.927C98.5941 149.977 98.5661 150.022 98.5245 150.052C97.9297 150.529 97.5427 151.218 97.4445 151.974C97.4401 152.021 97.4185 152.064 97.384 152.096C97.3495 152.128 97.3044 152.146 97.2573 152.147Z" fill="#EBEBEB"/>
<path d="M111.816 145.008C112.053 142.38 112.568 138.262 112.784 136.336C113.075 133.901 113.005 131.438 112.575 129.024C112.465 128.455 112.437 127.873 112.492 127.296C113.014 122.062 113.353 113.576 113.065 111.712L105.717 113.267C105.717 113.267 106.617 125.172 107.013 129.132C107.409 133.092 108.885 145.044 108.885 145.044C109.324 145.325 109.835 145.471 110.356 145.465C110.877 145.458 111.384 145.299 111.816 145.008Z" fill="#455A64"/>
<path d="M110.757 147.712C110.96 147.664 111.15 147.572 111.312 147.441C111.474 147.31 111.604 147.144 111.693 146.956C111.693 146.542 111.74 145.85 111.816 145.008C111.384 145.299 110.877 145.458 110.356 145.465C109.835 145.471 109.324 145.325 108.885 145.044L109.144 147.254C109.36 147.449 109.618 147.591 109.898 147.67C110.177 147.75 110.471 147.764 110.757 147.712Z" fill="#FFA8A7"/>
<path d="M103.55 149.63C103.849 145.649 104.428 137.941 104.504 136.728C104.56 135.39 104.476 134.049 104.252 132.728C104.122 132.014 104.122 131.283 104.252 130.568L107.492 112.648L98.6108 112.518L98.0312 131.292C98.0248 131.532 98.0344 131.773 98.06 132.012L99.9428 149.512C99.9428 149.512 101.779 151.056 103.55 149.63Z" fill="#455A64"/>
<path d="M102.067 152.914C102.343 152.882 102.607 152.781 102.835 152.622C103.062 152.462 103.246 152.248 103.37 151.999L103.55 149.63C101.779 151.07 99.9502 149.519 99.9502 149.519L100.231 152.14C100.231 152.14 100.641 153.047 102.067 152.914Z" fill="#FFA8A7"/>
<path d="M102.715 92.3472L100.62 93.0672L98.3662 103.727L98.4778 113.177C98.4778 113.177 100.087 114.462 106.373 114.462C109.901 114.462 112.201 113.13 113.065 111.715L112.5 106.006C112.5 106.006 113.065 100.379 113.065 97.596C113.065 94.8132 113.191 92.5344 111.017 91.1556L109.08 91.3176L102.715 92.3472Z" fill="#F4891E"/>
<path d="M102.715 92.3472L100.62 93.0672L98.3662 103.727L98.4778 113.177C98.4778 113.177 100.087 114.462 106.373 114.462C109.901 114.462 112.201 113.13 113.065 111.715L112.5 106.006C112.5 106.006 113.065 100.379 113.065 97.596C113.065 94.8132 113.191 92.5344 111.017 91.1556L109.08 91.3176L102.715 92.3472Z" fill="white" opacity="0.2"/>
<path d="M100.44 83.1853L99.3921 85.2625C99.377 85.2926 99.3685 85.3257 99.3673 85.3594C99.3662 85.3931 99.3723 85.4266 99.3853 85.4577C99.3983 85.4888 99.4178 85.5168 99.4426 85.5396C99.4674 85.5625 99.4968 85.5797 99.5289 85.5901L100.771 86.0077L100.44 83.1853Z" fill="#F28F8F"/>
<path d="M101.88 79.7041C101.88 79.7041 100.289 80.5609 100.289 85.4641C100.289 88.1677 100.476 89.8921 101.88 89.7841C103.284 89.6761 107.33 89.1469 107.33 89.1469V79.7041H101.88Z" fill="#FFA8A7"/>
<path d="M101.88 89.8021C102.373 89.7625 103.194 89.6725 104.04 89.5717V89.0713C103.268 89.4007 102.461 89.6422 101.635 89.7913C101.716 89.8009 101.798 89.8045 101.88 89.8021Z" fill="#F28F8F"/>
<path d="M103.824 88.8625V91.9477H108.047V87.6133L103.824 88.8625Z" fill="#FFA8A7"/>
<path d="M103.824 90.7741C103.824 90.7741 105.343 91.3141 106.56 91.1017C107.776 90.8893 108.046 90.1477 108.046 90.1477C108.046 90.1477 108.442 90.1153 109.08 91.3141C108.832 91.762 108.477 92.1416 108.046 92.4192C107.616 92.6968 107.124 92.8638 106.614 92.9053C105.289 92.9901 103.962 92.8001 102.715 92.3473C102.715 92.3473 103.32 90.6193 103.824 90.7741Z" fill="#F4891E"/>
<path d="M103.824 90.7741C103.824 90.7741 105.343 91.3141 106.56 91.1017C107.776 90.8893 108.046 90.1477 108.046 90.1477C108.046 90.1477 108.442 90.1153 109.08 91.3141C108.832 91.762 108.477 92.1416 108.046 92.4192C107.616 92.6968 107.124 92.8638 106.614 92.9053C105.289 92.9901 103.962 92.8001 102.715 92.3473C102.715 92.3473 103.32 90.6193 103.824 90.7741Z" fill="white" opacity="0.4"/>
<path d="M94.4027 99.9325L93.2687 101.675C93.2687 101.675 90.5147 100.447 88.5887 99.7021C87.4672 99.2855 86.4232 98.6844 85.4999 97.9237C85.5687 97.1735 85.689 96.429 85.8599 95.6953C86.0831 94.9393 86.1587 94.3093 85.4999 94.6441C84.8411 94.9789 84.3839 96.2785 84.3443 96.4441C84.3443 96.4441 80.4743 92.5525 79.9919 92.6389C79.5095 92.7253 79.6319 93.3085 80.6615 94.5073L81.7019 95.7097C81.7019 95.7097 79.3295 97.0741 79.7147 98.5645C80.0999 100.055 83.2283 100.724 83.2283 100.724C83.2283 100.724 92.3831 107.759 94.4099 106.484C96.4367 105.21 99.3059 101.57 99.3059 101.57L94.4027 99.9325Z" fill="#FFA8A7"/>
<path d="M101.452 92.79C101.452 92.79 103.144 94.1796 102.042 97.0524C100.94 99.9252 98.1288 103.396 98.1288 103.396C98.1288 103.396 95.184 102.478 94.0464 100.098L97.7616 94.284C98.0251 93.8701 98.3824 93.524 98.8046 93.2738C99.2268 93.0236 99.7019 92.8764 100.192 92.844C100.544 92.8224 100.962 92.8044 101.452 92.79Z" fill="#F4891E"/>
<path d="M101.452 92.79C101.452 92.79 103.144 94.1796 102.042 97.0524C100.94 99.9252 98.1288 103.396 98.1288 103.396C98.1288 103.396 95.184 102.478 94.0464 100.098L97.7616 94.284C98.0251 93.8701 98.3824 93.524 98.8046 93.2738C99.2268 93.0236 99.7019 92.8764 100.192 92.844C100.544 92.8224 100.962 92.8044 101.452 92.79Z" fill="white" opacity="0.4"/>
<path d="M101.286 76.8097C101.286 76.8097 99.6157 76.5864 99.1909 77.7348C98.9245 78.4548 99.7741 79.0093 99.7741 79.0093C99.7741 79.0093 98.6941 80.0208 100.303 80.334C100.276 80.5067 100.291 80.6836 100.348 80.8489C100.406 81.0141 100.503 81.1626 100.632 81.281C100.761 81.3994 100.917 81.484 101.086 81.5273C101.256 81.5707 101.433 81.5713 101.603 81.5293C101.603 81.5293 101.416 82.6093 102.823 83.0016C102.823 83.0016 102.103 84.8953 103.45 84.9205H104.699L104.195 86.382C104.195 86.382 105.131 88.6357 108.047 88.6357C108.367 87.9511 108.727 87.2863 109.127 86.6448C109.487 86.1948 111.287 83.8873 111.287 82.0585C111.287 80.2297 110.585 79.146 109.609 78.9048C109.3 78.2329 108.818 77.6552 108.212 77.2309C107.23 76.5685 105.163 75.978 103.997 76.7916C103.997 76.7916 102.964 75.4344 102.247 75.4344C101.531 75.4344 101.286 76.1725 101.286 76.8097Z" fill="#263238"/>
<path d="M103.449 84.9204C103.449 84.9204 103.327 83.0016 104.943 83.0016C106.56 83.0016 106.178 86.382 104.195 86.382L103.449 84.9204Z" fill="#FFA8A7"/>
</svg>
