<svg width="8" height="10" viewBox="0 0 8 10" fill="none" xmlns="http://www.w3.org/2000/svg">
<path d="M3.8625 8.5C3.7625 8.49167 3.677 8.452 3.606 8.381C3.535 8.31 3.49967 8.22467 3.5 8.125C3.5 8.00833 3.5375 7.9145 3.6125 7.8435C3.6875 7.7725 3.78333 7.74133 3.9 7.75C4.24167 7.775 4.60417 7.68117 4.9875 7.4685C5.37083 7.25583 5.6125 6.8705 5.7125 6.3125C5.72917 6.22083 5.77283 6.14583 5.8435 6.0875C5.91417 6.02917 5.9955 6 6.0875 6C6.20417 6 6.3 6.04383 6.375 6.1315C6.45 6.21917 6.475 6.32117 6.45 6.4375C6.30833 7.19583 5.975 7.7375 5.45 8.0625C4.925 8.3875 4.39583 8.53333 3.8625 8.5ZM4 10C5.14167 10 6.09383 9.60833 6.8565 8.825C7.61917 8.04167 8.00033 7.06667 8 5.9C8 5.06667 7.66867 4.16033 7.006 3.181C6.34333 2.20167 5.34133 1.14133 4 0C2.65833 1.14167 1.65617 2.20217 0.9935 3.1815C0.330833 4.16083 -0.000333786 5.067 0 5.9C0 7.06667 0.381333 8.04167 1.144 8.825C1.90667 9.60833 2.85867 10 4 10Z" fill="white"/>
</svg>
