<svg fill="none" height="17" viewBox="0 0 17 17" width="17" xmlns="http://www.w3.org/2000/svg">
<rect fill="#F5F5F5" height="17" width="17"/>
<g clip-path="url(#clip0_0_1)">
<rect fill="white" height="844" transform="translate(-68 -209)" width="390"/>
<g filter="url(#filter0_d_0_1)">
<g filter="url(#filter1_d_0_1)">
<rect fill="white" height="80.6769" rx="16" width="105.231" x="-44" y="-11.3344"/>
<g clip-path="url(#clip1_0_1)">
<mask style="mask-type:luminance" height="16" id="mask0_0_1" maskUnits="userSpaceOnUse" width="12" x="3" y="0">
<path d="M4.33329 14.6667H13.6666C13.8434 14.6667 14.013 14.5965 14.138 14.4714C14.2631 14.3464 14.3333 14.1769 14.3333 14V4.66671H11V1.33337H4.33329C4.15648 1.33337 3.98691 1.40361 3.86189 1.52864C3.73686 1.65366 3.66663 1.82323 3.66663 2.00004V14C3.66663 14.1769 3.73686 14.3464 3.86189 14.4714C3.98691 14.5965 4.15648 14.6667 4.33329 14.6667Z" fill="white" stroke="white" stroke-linecap="round" stroke-linejoin="round"/>
<path d="M10.9999 1.33337L14.3333 4.66671" stroke="white" stroke-linecap="round" stroke-linejoin="round"/>
<path d="M6.66663 9.66675L8.66663 11.3334L11.6666 7.66675" stroke="black" stroke-linecap="round" stroke-linejoin="round"/>
</mask>
<g mask="url(#mask0_0_1)">
<path d="M0.999939 0H16.9999V16H0.999939V0Z" fill="#FF8126"/>
</g>
</g>
</g>
</g>
</g>
<defs>
<filter color-interpolation-filters="sRGB" filterUnits="userSpaceOnUse" height="90.6769" id="filter0_d_0_1" width="115.231" x="-49" y="-14.3344">
<feFlood flood-opacity="0" result="BackgroundImageFix"/>
<feColorMatrix in="SourceAlpha" result="hardAlpha" type="matrix" values="0 0 0 0 0 0 0 0 0 0 0 0 0 0 0 0 0 0 127 0"/>
<feOffset dy="2"/>
<feGaussianBlur stdDeviation="2.5"/>
<feComposite in2="hardAlpha" operator="out"/>
<feColorMatrix type="matrix" values="0 0 0 0 0 0 0 0 0 0 0 0 0 0 0 0 0 0 0.1 0"/>
<feBlend in2="BackgroundImageFix" mode="normal" result="effect1_dropShadow_0_1"/>
<feBlend in="SourceGraphic" in2="effect1_dropShadow_0_1" mode="normal" result="shape"/>
</filter>
<filter color-interpolation-filters="sRGB" filterUnits="userSpaceOnUse" height="86.6769" id="filter1_d_0_1" width="111.231" x="-47" y="-13.3344">
<feFlood flood-opacity="0" result="BackgroundImageFix"/>
<feColorMatrix in="SourceAlpha" result="hardAlpha" type="matrix" values="0 0 0 0 0 0 0 0 0 0 0 0 0 0 0 0 0 0 127 0"/>
<feOffset dy="1"/>
<feGaussianBlur stdDeviation="1.5"/>
<feColorMatrix type="matrix" values="0 0 0 0 0 0 0 0 0 0 0 0 0 0 0 0 0 0 0.2 0"/>
<feBlend in2="BackgroundImageFix" mode="normal" result="effect1_dropShadow_0_1"/>
<feBlend in="SourceGraphic" in2="effect1_dropShadow_0_1" mode="normal" result="shape"/>
</filter>
<clipPath id="clip0_0_1">
<rect fill="white" height="844" transform="translate(-68 -209)" width="390"/>
</clipPath>
<clipPath id="clip1_0_1">
<rect fill="white" height="16" rx="6" width="16" x="0.615356" y="0.00415039"/>
</clipPath>
</defs>
</svg>
