<svg fill="none" height="17" viewBox="0 0 17 17" width="17" xmlns="http://www.w3.org/2000/svg">
<rect fill="#F5F5F5" height="17" width="17"/>
<g clip-path="url(#clip0_0_1)">
<rect fill="white" height="844" transform="translate(-305 -317)" width="390"/>
<g filter="url(#filter0_d_0_1)">
<path d="M-27.5112 -12.2662C-26.1229 -18.7466 -19.7441 -22.8745 -13.2637 -21.4862L35.296 -11.083C41.7764 -9.69467 45.9043 -3.31583 44.5159 3.16454L41.1513 18.8697L-30.8758 3.43892L-27.5112 -12.2662Z" fill="#F5BE86"/>
<path d="M-35.7692 -4.34112C-35.7692 -10.9685 -30.3966 -16.3411 -23.7692 -16.3411H39.9231C46.5505 -16.3411 51.9231 -10.9685 51.9231 -4.34112V11.7204H-35.7692V-4.34112Z" fill="#F4891E"/>
<g filter="url(#filter1_d_0_1)">
<rect fill="white" height="80.6769" rx="16" width="105.231" x="-44.5385" y="-11.3344"/>
<path d="M7.99337 1.33331C4.31337 1.33331 1.33337 4.31998 1.33337 7.99998C1.33337 11.68 4.31337 14.6666 7.99337 14.6666C11.68 14.6666 14.6667 11.68 14.6667 7.99998C14.6667 4.31998 11.68 1.33331 7.99337 1.33331ZM10.1934 11.14L7.33337 8.27331V4.66665H8.66671V7.72665L11.14 10.2L10.1934 11.14Z" fill="#FFA337"/>
</g>
</g>
</g>
<defs>
<filter color-interpolation-filters="sRGB" filterUnits="userSpaceOnUse" height="101.098" id="filter0_d_0_1" width="115.231" x="-49.5385" y="-24.7549">
<feFlood flood-opacity="0" result="BackgroundImageFix"/>
<feColorMatrix in="SourceAlpha" result="hardAlpha" type="matrix" values="0 0 0 0 0 0 0 0 0 0 0 0 0 0 0 0 0 0 127 0"/>
<feOffset dy="2"/>
<feGaussianBlur stdDeviation="2.5"/>
<feComposite in2="hardAlpha" operator="out"/>
<feColorMatrix type="matrix" values="0 0 0 0 0 0 0 0 0 0 0 0 0 0 0 0 0 0 0.1 0"/>
<feBlend in2="BackgroundImageFix" mode="normal" result="effect1_dropShadow_0_1"/>
<feBlend in="SourceGraphic" in2="effect1_dropShadow_0_1" mode="normal" result="shape"/>
</filter>
<filter color-interpolation-filters="sRGB" filterUnits="userSpaceOnUse" height="86.6769" id="filter1_d_0_1" width="111.231" x="-47.5385" y="-13.3344">
<feFlood flood-opacity="0" result="BackgroundImageFix"/>
<feColorMatrix in="SourceAlpha" result="hardAlpha" type="matrix" values="0 0 0 0 0 0 0 0 0 0 0 0 0 0 0 0 0 0 127 0"/>
<feOffset dy="1"/>
<feGaussianBlur stdDeviation="1.5"/>
<feColorMatrix type="matrix" values="0 0 0 0 0 0 0 0 0 0 0 0 0 0 0 0 0 0 0.2 0"/>
<feBlend in2="BackgroundImageFix" mode="normal" result="effect1_dropShadow_0_1"/>
<feBlend in="SourceGraphic" in2="effect1_dropShadow_0_1" mode="normal" result="shape"/>
</filter>
<clipPath id="clip0_0_1">
<rect fill="white" height="844" transform="translate(-305 -317)" width="390"/>
</clipPath>
</defs>
</svg>
