<svg fill="none" height="14" viewBox="0 0 12 14" width="12" xmlns="http://www.w3.org/2000/svg">
<rect fill="#F5F5F5" height="14" width="12"/>
<g clip-path="url(#clip0_0_1)">
<rect fill="white" height="844" transform="translate(-307 -210)" width="390"/>
<g filter="url(#filter0_d_0_1)">
<path d="M-29.5112 -13.2662C-28.1229 -19.7466 -21.7441 -23.8745 -15.2637 -22.4862L33.296 -12.083C39.7764 -10.6947 43.9043 -4.31583 42.5159 2.16454L39.1513 17.8697L-32.8758 2.43892L-29.5112 -13.2662Z" fill="#F5BE86"/>
<path d="M-37.7692 -5.34106C-37.7692 -11.9685 -32.3966 -17.3411 -25.7692 -17.3411H37.9231C44.5505 -17.3411 49.9231 -11.9685 49.9231 -5.34106V10.7205H-37.7692V-5.34106Z" fill="#F4891E"/>
<g filter="url(#filter1_d_0_1)">
<rect fill="#FFF2E4" height="80.6769" rx="16" width="105.231" x="-46.5385" y="-12.3344"/>
<path clip-rule="evenodd" d="M8.99996 13.6667C7.89996 13.6667 7.34996 13.6667 7.00863 13.3247C6.66663 12.9833 6.66663 12.4333 6.66663 11.3333C6.66663 10.2333 6.66663 9.68333 7.00863 9.342C7.34996 9 7.89996 9 8.99996 9C10.1 9 10.65 9 10.9913 9.342C11.3333 9.68333 11.3333 10.2333 11.3333 11.3333C11.3333 12.4333 11.3333 12.9833 10.9913 13.3247C10.65 13.6667 10.1 13.6667 8.99996 13.6667ZM8.23796 10.0213C8.16502 9.9484 8.0661 9.90742 7.96296 9.90742C7.85981 9.90742 7.76089 9.9484 7.68796 10.0213C7.61502 10.0943 7.57405 10.1932 7.57405 10.2963C7.57405 10.3995 7.61502 10.4984 7.68796 10.5713L8.44996 11.3333L7.68796 12.0953C7.65185 12.1314 7.6232 12.1743 7.60365 12.2215C7.58411 12.2687 7.57405 12.3193 7.57405 12.3703C7.57405 12.4214 7.58411 12.472 7.60365 12.5192C7.6232 12.5663 7.65185 12.6092 7.68796 12.6453C7.72407 12.6814 7.76695 12.7101 7.81413 12.7296C7.86131 12.7492 7.91189 12.7592 7.96296 12.7592C8.01403 12.7592 8.0646 12.7492 8.11179 12.7296C8.15897 12.7101 8.20185 12.6814 8.23796 12.6453L8.99996 11.8833L9.76196 12.6453C9.79807 12.6814 9.84095 12.7101 9.88813 12.7296C9.93531 12.7492 9.98589 12.7592 10.037 12.7592C10.088 12.7592 10.1386 12.7492 10.1858 12.7296C10.233 12.7101 10.2758 12.6814 10.312 12.6453C10.3481 12.6092 10.3767 12.5663 10.3963 12.5192C10.4158 12.472 10.4259 12.4214 10.4259 12.3703C10.4259 12.3193 10.4158 12.2687 10.3963 12.2215C10.3767 12.1743 10.3481 12.1314 10.312 12.0953L9.54996 11.3333L10.312 10.5713C10.3849 10.4984 10.4259 10.3995 10.4259 10.2963C10.4259 10.1932 10.3849 10.0943 10.312 10.0213C10.239 9.9484 10.1401 9.90742 10.037 9.90742C9.93381 9.90742 9.83489 9.9484 9.76196 10.0213L8.99996 10.7833L8.23796 10.0213Z" fill="#FE0000" fill-rule="evenodd"/>
<path d="M5.99996 5.66671C6.7072 5.66671 7.38548 5.38576 7.88558 4.88566C8.38567 4.38556 8.66663 3.70728 8.66663 3.00004C8.66663 2.2928 8.38567 1.61452 7.88558 1.11442C7.38548 0.614326 6.7072 0.333374 5.99996 0.333374C5.29272 0.333374 4.61444 0.614326 4.11434 1.11442C3.61424 1.61452 3.33329 2.2928 3.33329 3.00004C3.33329 3.70728 3.61424 4.38556 4.11434 4.88566C4.61444 5.38576 5.29272 5.66671 5.99996 5.66671ZM8.45196 8.00204C8.13663 8.00537 7.84263 8.01737 7.58663 8.05137C7.15796 8.10937 6.68863 8.24671 6.30129 8.63471C5.91329 9.02204 5.77596 9.49137 5.71863 9.92004C5.66663 10.3054 5.66663 10.776 5.66663 11.276V11.3907C5.66663 11.8907 5.66663 12.3614 5.71863 12.7467C5.75863 13.0474 5.83863 13.368 6.01663 13.6667H5.99996C0.666626 13.6667 0.666626 12.3234 0.666626 10.6667C0.666626 9.01004 3.05463 7.66671 5.99996 7.66671C6.88396 7.66671 7.71796 7.78737 8.45196 8.00204Z" fill="#FE0000"/>
</g>
</g>
</g>
<defs>
<filter color-interpolation-filters="sRGB" filterUnits="userSpaceOnUse" height="101.098" id="filter0_d_0_1" width="115.231" x="-51.5385" y="-25.755">
<feFlood flood-opacity="0" result="BackgroundImageFix"/>
<feColorMatrix in="SourceAlpha" result="hardAlpha" type="matrix" values="0 0 0 0 0 0 0 0 0 0 0 0 0 0 0 0 0 0 127 0"/>
<feOffset dy="2"/>
<feGaussianBlur stdDeviation="2.5"/>
<feComposite in2="hardAlpha" operator="out"/>
<feColorMatrix type="matrix" values="0 0 0 0 0 0 0 0 0 0 0 0 0 0 0 0 0 0 0.1 0"/>
<feBlend in2="BackgroundImageFix" mode="normal" result="effect1_dropShadow_0_1"/>
<feBlend in="SourceGraphic" in2="effect1_dropShadow_0_1" mode="normal" result="shape"/>
</filter>
<filter color-interpolation-filters="sRGB" filterUnits="userSpaceOnUse" height="86.6769" id="filter1_d_0_1" width="111.231" x="-49.5385" y="-14.3344">
<feFlood flood-opacity="0" result="BackgroundImageFix"/>
<feColorMatrix in="SourceAlpha" result="hardAlpha" type="matrix" values="0 0 0 0 0 0 0 0 0 0 0 0 0 0 0 0 0 0 127 0"/>
<feOffset dy="1"/>
<feGaussianBlur stdDeviation="1.5"/>
<feColorMatrix type="matrix" values="0 0 0 0 0 0 0 0 0 0 0 0 0 0 0 0 0 0 0.2 0"/>
<feBlend in2="BackgroundImageFix" mode="normal" result="effect1_dropShadow_0_1"/>
<feBlend in="SourceGraphic" in2="effect1_dropShadow_0_1" mode="normal" result="shape"/>
</filter>
<clipPath id="clip0_0_1">
<rect fill="white" height="844" transform="translate(-307 -210)" width="390"/>
</clipPath>
</defs>
</svg>
